<svg xmlns="http://www.w3.org/2000/svg" width="343" height="283" fill="none" viewBox="0 0 343 283"><path fill="#49376c" d="M75.69 53.432 68.52 45.8 83.47 58.61c-.783-1.855-1.391-4.135-2.531-5.872-.56-.851-1.64-1.74-2.407-2.48l-5.119-4.882.013-.2 6.954 5.347c-.64-1.785-.657-3.644-1.04-5.448-1.917-1.65-4.345-3.12-6.634-4.235-1.71-.832-3.46-1.407-5.236-2.006-4.276-1.441-10.029-3.242-14.09-2.248l-.226.244c-.43 2.022.602 4.483 1.387 6.573 1.929 5.134 4.479 9.962 7.001 14.96 1.514.929 3.524 1.606 5.164 2.298-.41-1.68-1.74-4.994-.623-6.332.97-1.16 3.609-1.067 5.226-1.109L57.511 40.14c5.125 3.232 10.137 6.924 14.434 11.063.99.953 3.122 3.027 4.451 3.199l.03-.214-.736-.755M96.976 43.063l.08-.23c-.357-.922-1.557-2.048-2.263-2.844-3.038-3.425-6.194-6.608-9.861-9.54-1.33-1.063-2.868-1.988-4.152-3.06-.946-.79-1.932-1.437-2.953-2.136 1.856.75 3.603 1.942 5.289 3.017 4.245 2.707 8 5.49 11.694 8.828 2.008 1.814 3.804 3.41 5.374 5.553.303-1.755.052-3.618.017-5.441-.025-1.33.138-2.766-.199-4.121-.187-.754-.616-1.45-1.108-2.129-2.135-2.94-7.773-4.646-11.15-5.73-3.308-1.061-7.148-1.788-10.488-2.077-1.393-.12-2.623-.197-3.784.327-.162 1.636 1.57 3.683 2.21 5.311 1.838 4.677 2.969 9.406 5.049 14.077l.516-.314.135-.096c1.335-.902 4.845.558 6.56.882-.359-.585-1.279-1.204-1.816-1.707l-4.31-4.137c1.427.823 2.603 1.933 3.87 2.946l7.138 5.541c.347.256 1.183 1.01 1.552 1.141.408.145 1.128.157 1.567.235 1.11.2 2.223.932 3.233 1.484-2.285-3.517-5.332-6.485-8.493-9.462l-7.443-6.693c1.384.57 2.68 1.684 3.86 2.585l9.439 7.813zM45.051 72.966c.616-.147 1.607.14 2.283.258l6.181 1.219-2.72-3.78c-3.21-1.127-5.571-1.722-8.795-1.592-.704.029-1.484.015-2.14.176l-.31.073c-.818.02-1.392.308-2.16.369-1.076.086-1.967.515-2.986.687-1.425.24-2.613 1.038-3.876 1.566-.368.154-.764.395-1.189.441-.35.038-.488.187-.944.19l-.089.213c.677.57 1.516 1.027 2.113 1.658l.128.14c1.221 1.3 1.826 2.932 2.485 4.424.69 1.562 1.398 2.986 2.436 4.444 2.616-1.234 5.813-2.134 8.836-2.645 1.303-.22 2.644-.268 3.93-.533-.805-.718-2.155-1.234-3.143-1.752l-6.657-3.55c-.75-.379-1.518-.646-2.271-1.052l.23.045c1.252.261 2.577.86 3.797 1.33l5.973 2.25c1.577.627 3.217 1.485 4.847 1.838 1.729.374 4.503.282 6.019-.156-2.104-1.415-4.238-2.603-6.5-3.743a50 50 0 0 0-3.395-1.528c-.614-.254-1.58-.569-2.086-.992zM7.82 97.936l-2.044.03c.228.204.434.42.717.55.912.421 2.243 2.302 2.978 3.054 3.3 3.374 6.785 6.309 11.004 8.682 3.611 2.031 7.926 3.55 11.843 4.687 3.255-1.98 7.107-3.22 11.086-4.064-6.178-.81-12.014-1.785-18.146-3.755-.644-.207-1.984-.514-2.505-.937l-.104-.104-.16-.037a7.6 7.6 0 0 1-1.317-.425l.104-.113 8.225 1.834c1.222.231 2.659.566 3.806.356l.133-.195c-1.463-.661-2.98-1.156-4.461-1.775l-12.906-5.189c-1.317-.47-2.653-.964-3.986-1.35-.926-.268-2.215-.4-3.048-.862.55-.083 1.519.205 2.094.327 5.164 1.105 10.058 3.171 15.114 4.852l10.375 3.177c5.086 1.374 10.127 1.899 15.21 2.512-3.45-1.668-7.02-3.072-10.254-5.174-.438-.285-.937-.469-1.313-.821-.226-.211-.114-.147-.336-.259-.942-.472-1.506-1.547-2.037-2.354-.04-.543-.036-1.174.261-1.607 1.038-1.516 3.36-1.48 5.296-1.642l.09-.213c-.754-.548-1.716-.632-2.537-1.088-1.63-.906-3.164-2.074-4.78-3.039-1.605-.2-3.18.033-4.711.17-6.766.602-13.116 2.04-19.431 3.683-.937.243-2.417.423-3.222.831-.33.167-.645.197-1.037.258zM65.467 75.086c-1.117-1.281-2.215-2.55-3.23-3.889-.528-.695-1.074-1.33-1.28-2.121.67.246 1.531 1.074 2.14 1.517l3.554 2.448c.95-.06 2.077-.608 3.016-.822l-4.374-4.305c-.75-.742-1.555-1.433-2.172-2.263l.954.369c2.34.772 4.765 2.35 6.91 3.629a29.4 29.4 0 0 0-3.046-6.336c-3.341-1.694-6.027-3.558-9.72-4.299-1.464-.293-2.735-.351-4.163-.356-.71-.002-1.309-.149-1.85.204-.3.164-.4.46-.555.735-1.052 1.865-.94 3.99-.483 6.233.93 4.555 4.167 9.52 8.388 12.766 1.577 1.213 2.734 1.662 4.587 2.214.694.206 1.164.474 1.885.479l.12-.23c-.954-1.119-2.222-2.047-3.29-3.085-.784-.762-1.453-1.673-2.129-2.505l3.777 2.115c.23.104.397.157.601.316l5.864 4.14-5.506-6.954zM74.313 97.673c-.39-.693-.773-1.345-1.445-1.886l-.156-.124c-1.739-1.523-4.589-2.637-6.647-3.797 2.029.078 4.36.87 6.385 1.45.625.18 1.832.669 2.39.614.144-.013.241-.115.362-.172l-.138-.308c-4.431-2.322-8.832-3.609-13.514-4.996 4.258.061 8.57.96 12.814 2.397 1.77.6 3.56 1.41 5.313 2.1-.415-.907-.94-2.397-1.773-3.14-3.62-3.227-7.784-5.28-12.413-6.465-7.364-1.886-14.289-1.182-21.022.006-2.756.487-5.588.982-7.884 2.26l-.608.637a3.6 3.6 0 0 0 .049 1.696c.76 2.747 4.784 5.82 7.363 7.49.643.416 1.79 1.132 2.53 1.287.895.187 1.951.11 2.847.148l7.624.138c.845-.002 1.726.178 2.554.106-4.459-2.147-9.307-3.39-13.389-6.333l5.178 1.8 5.337 1.527c.968.29 2.617.977 3.566.944a2.7 2.7 0 0 0-.599-.493l-13.583-8.346c5.501 1.829 10.88 4.252 16.032 7.035 2.004 1.083 4.004 2.223 6.09 3.127.521.226 1.22.583 1.766.627 1.64.132 3.653 1.327 5.177 1.245l-.205-.574"/><path fill="#49376c" d="m84.592 70.293 5.844 4.856c.555.42 1.325 1.021 1.999 1.017.119-1.175-2.27-3.085-3.054-4.099-.436-.564-.703-1.194-1.158-1.767-1.225-1.542-2.663-3.011-3.738-4.62l4.501 3.482c.754.624 1.32 1.4 2.163 1.93.379.24.678.554 1.127.602.184-.29.226-.475.206-.837-.013-.254.018-.812-.088-1.049-.177-.399-.732-1.009-1.01-1.388-1.418-1.92-3.001-3.157-4.687-4.845-.743-.744-1.766-1.383-2.631-2.011-1.729-1.256-3.447-2.463-5.307-3.534-3.183-1.83-6.839-3.24-10.24-2.708-.164.152-.342.304-.423.514-.294.753.3 2.165.575 3.002 1.57 4.771 3.905 9.133 6.373 13.715l6.22 1.277-3.588-3.992c1.509.826 3.082 2.098 4.485 3.116.55.398 1.284 1.087 1.93 1.217-.07-.847-1.075-1.677-1.542-2.491l-3.984-7.333zM109.615 25.785c.486.47.861.909 1.245 1.438l4.764 7.134 2.202-3.352c.193-.315.551-.677.463-1.074-2.236-2.473-5.099-4.218-7.95-6.033-1.435-.915-3.212-2.152-4.879-2.46-.823-.151-1.96-.096-2.581.292-1.564.977-1.364 3.936-1.302 5.626.309 8.409.312 16.922 3.982 25.426.512 1.188 1.046 2.681 2.045 3.678.142.14.267.174.449.256.688-1.272.351-2.525.122-4.002l-1.216-6.27c-.108-.545-.422-1.4-.383-1.9-.089-.187-.209-.37-.213-.561.101.2.227.359.213.561l.07.093c1.396 1.948 2.056 4.838 2.593 6.953.492-.749 2.324-3.48 2.32-4.284-.002-.393-.231-1.003-.325-1.415l-.853-3.625-1.419-6.743c1.063 2.035 1.934 4.103 2.793 6.181.376.911.732 2.76 1.437 3.473.094-2.5.697-4.892.854-7.367.058-.892-.259-1.858-.508-2.77-.885-3.244-2.524-6.107-3.923-9.254zM89.94 57.395l-2.204-6.523 5.418 8.118-.096-3.23.257-3.524c.06-.671.197-1.567-.198-2.253l-.604-.958c-1.46-2.066-4.7-4.172-7.155-4.934-1.122-.348-2.012-.478-2.965-.038-.678.453-1.032 1.37-1.078 2.175-.147 2.58 1.246 5.52 2.626 7.993 2.415 4.327 5.197 8.061 8.592 11.938l.576.103.105-.202zM124.72 8.582c.872.85 1.504 1.868 2.204 2.819l4.763 6.969c1.106 1.745 2.096 3.522 3.405 5.186-.347-2.187.021-4.042.83-5.922.21-.488.61-.998.63-1.555.051-1.392-2.096-3.652-3.3-4.651-2.231-1.85-8.591-6.495-11.364-6.66q-.665-.044-1.029.383c-.533.623-.061 8.571-.2 10.211-.144 1.691-.312 3.394-.778 4.99-.325 1.114-.871 2.138-1.277 3.218-.257 1.27-.57 2.867.149 4.24.216.414.466.82.79 1.188 1.452-.732 2.323-1.175 4.223-.636 2.176.618 4.48 2.025 6.212 3.483-.154-3.704-1.981-6.972-3.862-10.508 2.507 2.89 4.999 6.012 6.66 9.278.289-1.148.582-2.35.429-3.607-.262-2.143-1.448-4.29-2.432-6.351l-4.243-8.493c-.518-.977-1.651-2.592-1.809-3.582zM12.27 127.585c.664-.485 1.58-.675 2.4-.947 2.106-.7 4.058-1.239 6.347-1.582.652-.098 4.066-.403 4.251-.705.17-.276.213-.874.311-1.205.31-1.041.717-1.998 1.389-2.849l2.487-2.868c.416-.456 1-.937 1.245-1.5-2.394.002-4.198.596-6.282 1.289-4.692 1.561-9.537 3.886-12.566 7.339-.942 1.074-1.759 2.226-2.536 3.412-.508.776-1.098 1.546-1.366 2.449-.07.235-.175.318-.381.461l-.058.447.432-.227.28.281.272-.006c2.725-.049 10.254 1.561 12.553 3.328l.406.386.383.302c-4.902 3.169-11.484 3.655-16.526 6.741-.398.243-.62.273-.955.62-.18.188-.496.344-.786.376l-.049.339c-.168.078-.567.197-.678.316-.026.029-.064.257-.09.274-.011.008-.388.072-.416.083-.172.071-.436.439-.569.573-.594.599-1.223 1.183-1.768 1.823l2.121.458c.238.295.28.262.667.359l.215.052c.333.086.544.236.85.37l.242.077c.271.089.458.182.713.312 1.56.806 3.307 1.412 4.926 2.064l9.508 3.754 6.003 2.142 1.051-3.585c.599-1.657 1.546-3.305 2.576-4.72-1.514-.194-2.978-.111-4.48-.317-.401-.054-.883-.08-1.26-.282 1.09-.523 3.475-.409 4.857-.497.314-.021 1.044.022 1.294-.082.752-.318 1.64-1.705 2.155-2.314l-25.467.935c.937-.406 2.117-.511 3.17-.707l8.858-1.3c1.967-.269 3.881-.704 5.906-.812l6.046-.16c1.867-.027 3.438.077 5.088-.554-2.736-.87-6.004-1.188-8.77-1.462-1.005-.099-2.377-.065-3.353-.361 1.195-.218 2.608-.024 3.876-.002l6.23.071c1.951.046 3.92.177 5.813-.021l-4.816-1.915c-2.051-.912-4.035-1.988-6.106-2.852-1.184-.494-2.717-.755-3.817-1.352-.246-.133-.384-.266-.579-.455-.241-.73-.063-1.455.31-2.022 1.398-2.129 3.432-3.105 6.28-3.346l.013-.175c-.447-.287-.946-.633-1.442-.822-1.002-.382-2.343-.441-3.362-.497-3.33-.183-6.562.047-9.713.517-1.006.149-2.021.491-3.049.542l-.28.011zM46.454 104.431c.985.379 2.01 1.012 2.983 1.464 2.787 1.292 5.803 2.671 8.75 3.228.972.184 1.91.171 2.875.288.707.085 2.05.483 2.662.369.305-.056.31-.219.413-.449-1.721-1.557-3.87-2.268-5.982-3.112 1.423-.151 3.974.636 5.402 1.235.475.199 1.06.577 1.537.704.412.11.638-.026.944-.178l-.02-.281c-2.186-1.342-4.803-2.355-7.192-3.22-1.355-.49-2.847-.919-4.115-1.63l-.133-.077c.848-.034 2.017.3 2.9.465 2.59.485 5.178 1.103 7.769 1.467-.74-.652-1.83-1.145-2.682-1.7-1.46-.951-3.176-2.441-4.725-3.13-1.818-.805-15.016-.896-16.76-.097-.496.227-.475.625-.541 1.092l.347.302c.339.356.457.487.914.744zM87.164 84.453c-2.113-2.1-4.295-3.632-6.656-5.477 1.876.614 3.888 1.817 5.623 2.81.428.243 1.084.546 1.517.468l-1.478-3.515c.1-.575.262-.625.747-.947l-.34-.582c-.539-.07-1.028-.4-1.535-.627a26 26 0 0 0-2.426-.942c-1.76-.58-3.481-.884-5.26-1.186-2.839-.482-5.896-.94-8.593-.584l-.273.182.027.206c.171 1.016 1.254 2.208 1.968 3.057 1.444 1.715 2.88 3.373 4.599 4.892 2.23 1.97 4.892 3.761 7.27 5.606 1.083.01 2.031-.194 3.036-.404-2.01-2.086-4.954-3.955-6.523-6.312.29-.112.371-.04.688.1.602.265 1.145.698 1.732 1.006l4.29 2.201c.68.373 1.81 1.156 2.511 1.22-.142-.407-.61-.826-.925-1.172z"/><path fill="#49376c" d="M45.115 116.747c6.406-.197 12.66-.485 19.164-.267 2.803.093 5.61.121 8.46.681l-1.967-2.469 2.108-.337c-2.882-1.394-6.74-2.289-9.793-2.639-2.76-.316-5.516-.198-8.182-.052-6.312.344-13.366 1.317-18.72 3.725-2.24 1.006-4.002 2.329-5.812 3.819-1.725 1.231-2.544 3.725-3.403 5.547 2.911.819 5.614 2.269 8.416 3.464 7.369 3.142 15.66 5.423 23.032 4.45-2.848-1.016-5.705-2.001-8.38-3.488-1.224-.682-2.501-1.424-3.402-2.482-.512-.601-.712-1.283-.62-1.943.403-2.887 9.255-4.53 11.935-5.807-4.33-1.284-9.276-1.679-13.61-1.997l-.11-.113.884-.09zM100.06 63.42l.112.094c2.103 1.807 3.778 3.829 6.044 5.553-.84-2.182-1.999-4.358-3.148-6.47-.646-1.188-1.524-2.54-1.934-3.769.431.342.754.584 1.001 1.042l.127.064c.474.27.964.836 1.364 1.212 2.068 1.944 3.288 4.03 5.055 6.123-.261-1.72-.377-3.64-.91-5.352-.331-1.064-1.058-2.043-1.771-2.988-1.603-2.13-3.543-4.038-5.164-6.135-1.009-1.159-2.197-2.799-3.542-3.628-.815.333-1.154 1.862-1.345 2.632-1.25 5.06-1.11 12.465 2.35 17.7.904 1.365 2.302 2.655 3.502 3.846-.204-1.434-.292-2.773.047-4.102.096-.377.395-.927.404-1.295.007-.275-.337-.953-.483-1.227-.567-1.062-1.394-2.198-1.709-3.3M53.512 136.823l.497-.487c.247-.265.341-.338.274-.728-3.865-.417-8.089-1.614-11.862-2.993-2.555-.934-5.024-2.041-7.653-2.666-2.885-.686-5.887-.486-8.09.78-.202.188-.35.306-.444.569-.08.225.031.29.164.515 2.231.775 4.301 2.047 6.421 3.11 5.655 2.837 11.637 5.008 17.678 5.222zM124.564 32.459l.176.344c1.162 1.437 1.752 3.307 2.385 4.905l.79-.762c.585-.547 1.23-.669 2.136-.706-.371-1.045-.745-2.048-1.645-2.912-.429-.412-.725-.941-1.137-1.377-.934-.987-2.621-2.307-4.008-2.558a1.76 1.76 0 0 0-1.372.313l-1.144 1.183c-.155.157-.223.304-.345.478-2.407 3.397-4.505 8.599-3.404 13.189.398 1.656 1.1 3.33 1.955 4.917l.862 1.55c.553.97 1.16 2 1.983 2.844l.363.049c.365-.465.101-1.714.082-2.34-.064-2.148-.007-4.288-.225-6.46-.08-.795-.418-1.633-.441-2.41.9 1.985 1.243 3.918 2.028 5.878a38 38 0 0 1 1.215-5.558c.388-1.276 1.248-2.489 1.265-3.891.023-1.904-.689-4.02-1.299-5.93-.077-.241-.056-.151-.047-.403l-.175-.344zM70.502 103.183c1.639-.014 3.312.066 4.987.311 1.672.246 3.44.799 5.062.639-1.092-.744-2.314-1.284-3.503-1.849-5.79-2.75-11.272-3.359-17.171-3.194-.24.144-.279.115-.36.39 1.298.944 2.787 1.701 4.165 2.535 2.023 1.225 4.085 2.611 6.222 3.621 1.186.561 2.48.863 3.692 1.352 1.909.771 3.877 1.899 5.667 2.937l.45-2.184c-2.81-1.864-6.274-3.114-9.36-4.386zM140.419 17.969c.904-1.13 1.836-2.234 2.916-3.226.502-.462 1.219-.872 1.659-1.352.168-.182.306-.309.541-.425l.198-.097c.007-.489-.09-.581-.378-1.034-.351-.177-.654-.388-1.033-.413-2.196-.142-4.298 2.105-5.607 3.281-1.861 2.41-2.256 5.418-1.56 8.652l3.263-5.386zM118.189 63.041l1.624 3.83c.478 1.226 1.888 5.929 2.684 6.576.406-.887-.179-2.734-.331-3.797-.133-.927-.264-1.954-.213-2.856.044-.77.206-1.445.157-2.248a15.8 15.8 0 0 0-.834-4.124c-1.209-3.573-3.231-7.333-5.151-10.759-.518-.924-1.016-2.096-1.818-2.866-1.031 1.045-1.7 2.574-2.201 3.934-.479 1.302-1.004 2.695-1.205 4.097-.623 4.353.888 8.427 3.262 12.7l2.79 1.989-.62-10.659zM148.001 18.737l-.017.334.032.246c.486 1.7.455 3.508.627 5.203.611 5.99 1.083 12.035.93 17.916 1.053-1.567 2.033-3.234 3.218-4.71 1.196-1.49 2.823-2.847 3.681-4.553.827-1.646.476-4.594-.168-6.516-1.222-3.647-3.7-8.593-7.532-10.998-.559-.35-1.446-.853-2.076-.76-3.42.504-5.816 5.076-7.064 7.618-1.916 3.904-2.721 8.076-3.481 12.424-.287 1.648-.76 3.315-.528 5.07.997 1.277 2.11 2.542 2.987 3.871.709 1.072 1.259 2.235 1.824 3.353.212-1.362.089-2.647.08-4.044l.31-7.063c.089-1.139.094-2.395.386-3.469.363.982.413 2.265.528 3.26l.739 9.134c.2 2.38.231 5.294 1.657 7.57.712-1.356.987-2.804 1.354-4.304 1.072-4.382 1.464-8.802 1.807-13.385l.438-5.258.219-7.573c.033-.889-.088-1.811.043-2.677l.019-.11-.032-.247.018-.333z"/><path fill="#49376c" d="m160.719 4.904.033.117c.304 1.171.152 2.504.16 3.658l-.518 11.897c-.064 1.138.059 2.335-.069 3.455-.217 1.913-.903 3.189-.602 5.272 2.06-3.333 3.97-6.675 6.762-9.52.726-.741 1.501-1.289 2.418-1.841.217-.13 1.477-.75 1.547-.929.064-.163-.502-1.65-.615-1.958-1.267-3.47-3.241-7.032-5.699-10.133a3.3 3.3 0 0 0-.485-.552c-.185-.163-.28-.302-.416-.492-1.007-1.414-2.642-2.599-3.859-3.878l-.297.015-.432.615-9.629 12.966c.259.46.945.93 1.35 1.328l2.798 2.935c1.255 1.415 2.231 2.991 3.164 4.551.342.572.862 1.087 1 1.625l.2.033c.763-.935.802-3.409 1.012-4.676l1.718-11.037c.116-.887.001-2.76.459-3.451M101.635 83.244c-.202-.56-.452-.946-.255-1.458.46-.298.863-.418 1.437-.522l.194-.033c-.952-.929-5.469-6.05-5.566-6.963l.266-.075c3.158 2.174 5.599 5.287 8.976 7.172-1.677-2.592-4.594-5.045-6.836-7.33-1.137-1.16-2.363-2.693-3.674-3.666-.56-.125-.646-.09-1.123.046-.269.207-.436.46-.585.752-.338.665-.379 1.776-.237 2.568.335 1.876 1.417 4.04 2.095 5.918.757 2.097 1.255 4.147 2.23 6.226l1.858.895a15.7 15.7 0 0 1-1.143-6.895c.766 1.431 1.103 3.084 2.325 4.345l.251-.091zM93.699 84.92c.737 1.27 1.828 3.452 3.182 4.281l.146-.126c-.463-1.922-.93-3.887-1.684-5.787-.141-.355-.306-.941-.575-1.244-1.41-1.585-3.873-2.326-5.808-2.843-.11.125-.123.261-.164.422 1.41 2.824 2.15 6.002 3.908 8.716.658.31 1.813.357 2.53.458-1.024-1.08-2-2.88-2.013-4.174l.267-.02zM130.694 57.782l.052.104c.48.997.7 2.097 1.02 3.119.383 1.225.855 2.441 1.083 3.674l.545.102c.321-.45.163-1.413.138-2.002l-.392-5.92c-.102-2.051-.039-4.099-.235-6.16-.089-.932-.282-1.848-.501-2.783-.086-.373-.295-.892-.164-1.22 1.41 3.683 2.427 7.66 3.071 11.382.714 4.127 1.129 8.33 2.411 12.459.511-3.026.899-6.164 1.065-9.279l.048-4.358c-.002-.528-.119-1.313.037-1.779.542.678.651 1.762.802 2.522 1.211 6.069.295 11.964.525 17.931.09 2.35.498 4.747.888 7.121.911-.22 2.192-.413 2.906-.91 1.549-1.08 1.917-6.301 1.891-8.31-.115-9.054-2.707-18.878-8.348-27.47-1.412-2.148-2.759-4.079-4.632-5.999-.684-.7-2.038-2.027-2.969-2.179-.676.189-1.189.401-1.479.992l-1.063 2c-1.681 3.873-2.012 8.272-2.257 12.604-.061 1.08-.358 2.7.176 3.778.464-.218 1.017-.366 1.615-.157 2.019.707 3.788 3.936 4.846 5.553-.474-1.585-.944-3.233-1.079-4.815M86.548 103.008c-1.555-.82-4.538-2.236-5.427-3.674l.131-.045 3.689 2.04c.534.247 1.064.452 1.58.308l-.037-.273-3.343-2.918c-1.756-1.47-4.474-2.362-6.615-2.461-.106.168-.128.256-.064.48.122.429.614 1.054.869 1.466 2.695 4.352 7.492 7.277 11.876 10.188-1.015-1.682-1.537-3.496-2.66-5.111zM66.342 141.331c.234-.295.575-.492.961-.623 1.835-.624 3.876-.92 5.803-1.37 2.501-.583 4.943-1.384 7.174-2.418-.693-.405-1.443-.885-2.194-1.153-2.799-.998-6.474-1.176-9.319-1.523l7.678-1.954c.025-.127.029-.201.111-.314.626-.857 2.945-1.567 4.143-1.719l.212-.025-.018-.252c-1.083-.396-2.338-.253-3.435-.341-1.848-.147-3.712-.423-5.549-.475-1.238-.035-2.688.127-3.932-.107L67.69 129c.91-.499 2.131-.748 3.179-1.057 4.843-1.426 9.634-2.148 15.135-1.71 4.076.323 7.807 1.159 11.666.391-3.796-1.166-7.55-1.737-11.193-3.521.765-.11 1.588-.174 2.292-.41l-.088-.218c-1.735-.926-3.995-.814-5.833-1.04-2.09-.257-4.215-.78-6.287-.993-4.405-.452-9.293-.102-13.372.683-3.93.757-7.88 1.627-11.382 3.162-.704.307-1.593.608-2.04 1.172l-.432.417c.13.496.237.525.693.853 4.283 3.077 9.837 3.923 14.426 6.376-1.866.632-3.677 1.351-5.323 2.297-.486.279-1.156.573-1.48.989-.178.23-.294.163-.548.286l-.269.206c-1.791 1.444-4.565 3.871-4.506 6.388.01.443.04.535.36.919 2.417 1.071 5.285 1.208 7.794 1.829 4.151 1.028 8.234 2.431 12.413 3.217 5.228.984 10.452.552 15.04-.776 3.061-.886 5.797-2.288 8.644-3.497 1.445-.614 3.144-.948 4.408-1.799-1.973-.259-3.817.022-5.71.139-4.251.262-8.558.817-12.871.768 2.872-.73 6.07-1.61 8.45-3.078-1.62-.217-3.21-.166-4.796-.165l-8.245.135c-3.785.062-7.845-.188-11.476.366zM88.66 96.481l1.293 1.07.258-.035c.143-.985-.04-2.21-.383-3.241l-.061-.179 2.695-.668.03-.26c-.387-.638-1.247-1.121-1.922-1.52-2.275-1.344-5.657-1.963-8.022-1.65l-.534.344c-.118.418-.174.524-.008.984.766 2.122 1.834 4.343 2.978 6.382.39.697.698 1.427 1.452 1.898l.279-.11-.021-3.8c.144-.156.242-.277.321-.476l.058-.162.25-.075zM21.693 171.612c.608-.1 1.418-.012 2.07-.014l3.4-.094c4.622-.172 8.963-.809 13.424-1.435 1.378-.194 3.11-.236 4.35-.702.983-.372 1.89-1.33 2.66-1.967-5.065-.103-9.996.171-14.826.874l-7.436 1.235c-1.258.219-2.858.652-4.186.558l-.283-.025c2.248-1.084 5.182-1.678 7.706-2.337 1.073-.279 2.504-.484 3.363-1.046l-4.5-.858-1.267-3.16-.237-.047c-.164.412-.486.573-.708.931-.707 1.145-2.253 1.882-3.381 2.662-.324.223-.935.783-1.33.843l-.273.006-.254.335c-.227.046-.476.071-.657.192-.21.14-.432.259-.661.382-.341-.065-.607.104-.88.231-1.743.814-4.212 1.163-6.332 1.106l-.209-.007c-.2.115-.297.184-.446.357 1.19.678 2.454 1.358 3.708 1.89.756.32 1.7.558 2.393.96.504.288 1.547.628 2.095.758.253.062.402.085.648.206l.216.105c.398.128.547.132.944.365l.14.083c.196-.022.32-.043.526.022l.157.051.344.033c4.264 1.097 8.29 1.757 12.558 1.963l6.172.088c.529-1.778 1.236-3.163 2.244-4.688-5.807.491-11.426.817-17.443.503-1.2-.064-2.605-.027-3.809-.359"/><path fill="#49376c" d="M55.923 155.619c2.517-1.237 5.18-2.229 7.808-3.303 1.622-.662 3.188-1.236 4.625-2.151l-.211-.081c-.783-.294-3.181-1.044-3.84-.754L31.64 162.088c1.222-1.253 2.975-2.237 4.523-3.166 4.848-2.917 10.122-5.251 15.535-7.412 2.935-1.172 5.852-2.098 8.634-3.516-2.554-.784-5.26-1.156-7.764-2.094-.599-.223-1.245-.535-1.662-1.02-.849-.983-.732-2.33-.721-3.362-1.488.158-3.06.077-4.58.138-4.628.185-8.24.997-11.367 3.69-1.233 1.098-2.594 2.479-3.43 3.868-2.701 4.494-3.73 9.776-1.596 15.405 1.314.247 2.71.156 4.018.235l9.45.553c6.523.21 11.988-1.542 16.742-4.688l4.683-3.413 4.108-2.706c.546-.376 1.274-.77 1.68-1.262.508-.615 1.097-1.157 1.678-1.716L42.785 161.87l-.048-.109c1.19-.758 2.546-1.258 3.849-1.869l9.338-4.274zM81.476 113.809c-.752-.947-1.31-1.872-1.864-2.896-1.455-.65-3.237-1.594-4.753-1.971-2.964-.737-5.894-.036-8.084 1.205l-.364.369.268.278 7.61 1.809c2.04.55 4.158 1.361 6.193 1.801.47.101.775.17 1.191.033zM110.011 77.51c1.162.962 2.757 2.432 3.649 3.577.315.405.523.718.996.989l1.878 1.05c-.162-1.093-.409-1.543-1.113-2.517-2.141-2.962-4.659-5.292-7.594-7.676-1.202-.976-2.613-2.195-4.114-2.663l-.195.321c.065 1.248.962 2.726 1.583 3.935l2.201 4.356c.348.673.609 1.447 1.082 2.072 1.393.113 2.672.403 4.055.76-.996-1.592-2.38-3.124-3.282-4.722zM99.348 113.568c-.777-1.435-1.21-2.823-1.662-4.308-.942-3.1-1.508-6.016-1.423-9.062 1.093 2.561 1.233 5.205 2.95 7.675l.151-.02c.142-.012.577-.031.711.032.118.056.531.536.647.649l1.794 1.642c.771.652 1.66 1.206 2.518 1.752-.637-1.135-1.421-2.212-2.044-3.346-1.361-2.477-2.159-4.98-2.221-7.535-.009-.363-.033-.364.245-.569.547.462.907 1.919 1.185 2.565.462 1.074 1.061 2.132 1.575 3.198 1.391 2.879 2.733 5.721 5.591 7.898.453.345.751.341 1.252.346-.045-.988-2.398-3.816-3.024-4.872-.611-1.032-1.143-2.114-1.647-3.174-.618-1.302-.686-2.738-1.32-3.966-.461-.894-.561-1.767-.72-2.686.737.874 1.477 1.875 2.396 2.61l.19.149c.792.725 1.764 1.234 2.625 1.903.21.163.247.112.489.118.011-.349.039-.481.284-.72.925-.104 1.869-.025 2.831.037l-5.738-4.012c-.259-.153-.223-.204-.329-.445l.285-.073c1.841 1.16 4.007 2.003 5.973 2.95 3.345 1.613 6.403 3.239 9.553 5.232-.389-1.067-.729-2.234-1.73-3.067l-.166-.136c-.254-.234-.42-.415-.72-.607-.638-.409-1.24-.921-1.905-1.278l-11.07-6.586c1.107.078 2.578.772 3.65 1.224 2.154.909 4.326 1.794 6.421 2.857 1.367.693 2.628 1.519 4.013 2.194-.894-1.299-2.567-3.045-3.958-3.953-1.985-1.295-4.182-2.036-6.282-3.069l.087-.17 5.712 2.086-1.472-1.764c-.26-.294-.661-.87-.959-1.08-1.406-.997-3.475-1.354-5.059-1.695.448-.24 1.386-.14 1.954-.133 3.364.037 6.447.524 9.837 1.275l-.739-1.916c-1.35-.964-8.25-1.026-9.956-1.047-.778-.01-1.569.175-2.354.032.072-.147.128-.276.277-.37.67-.421 1.877-.63 2.701-.807 4.093-.877 7.803-.824 12.256-.104-1.219-.617-2.588-1.281-3.884-1.636-4.215-1.153-7.918-.21-11.843.112l.847-.427c.772-.395 1.496-.55 2.403-.702-1.054-.609-2.214-1.344-3.363-1.71l-.242.15c-.334.693-.294 1.391-.274 2.186l-.146-.01c-1.307-.175-2.348-.82-3.316-1.703l-.34.013c-.013.881.299 2.154-.013 2.912l-.592.022c-.834-.626-3.095-1.79-4.063-1.795-.132.127-.14.118-.237.3-.4.746.597 3.019.907 3.868-1.473-.344-3.18-1.267-4.625-1.28-.56-.004-.765.021-1.086.367-.069.716.252 1.456.494 2.184.411 1.24.847 2.452 1.375 3.676l-2.254-1.107c-.463-.16-.757-.171-1.148-.036l-.196 3.088c-.012.201-.122.696-.055.864.064.158.211.291.316.437l-.169.622c-.311.124-.33.125-.703.044l-1.276-1.106-.235-.423c-.224-.295-.722-.636-1.082-.74-.177.624-.143 1.32-.09 1.996.271 3.425 1.627 6.867 3.585 10.099.416.686.822 1.496 1.442 2.068l.564-.027c-.533-2.494-1.426-4.904-1.675-7.409-.067-.667-.324-2.179-.125-2.737.153-.428.935-.966 1.267-1.279.153-.145.255-.233.438-.341l.325.205-.135.252-.072.093c-.714 1.048-.517 2.264-.286 3.548.523 2.897 1.59 5.685 2.613 8.549 1.047.294 2.05.798 3.082 1.168l.21-.208zM120.994 78.608l.52.9c.491.78 1.111 1.514 1.623 2.288.103.157.375.682.514.788.161.122.661.266.859.346l2.944 1.137-.348-.95c-1.762-3.862-4.428-7.275-7.909-10.241-1.088-.928-2.401-2.013-3.693-2.654a4.57 4.57 0 0 0-3.102-.375l-.655.545c.86 1.54 2.288 3.085 3.352 4.565.706.983 1.22 2.045 1.835 3.062.795 1.316 1.539 2.422 1.655 3.85l.008.107c.893-.14 1.711-.174 2.655-.131l-2.899-6.723c.971 1.152 1.878 2.231 2.64 3.487z"/><path fill="#49376c" d="m115.786 85.763 2.938.195c-3.059-2.015-5.283-2.75-8.817-3.195-1.102-.139-4.253-.35-4.935.283a1.6 1.6 0 0 1-.453.324l-1.408-.702-.102.291c.592 1.087 1.16 2.137 1.947 3.154l.481-1.213c.14-.57-.06-.797-.393-1.344.362-.073.93.175 1.32.316 1.545.553 3.32 1.617 4.836 2.016.374.099 1.345-.112 1.766-.146.937-.078 1.848-.058 2.82.02M133.034 80.943l-.062.35c-.274 1.822-.141 3.67.076 5.575.09.793.13 1.648.492 2.433.647 1.405 2.105 3.018 3.099 4.332l.149.031c1.103-1.108 1.252-2.498 1.344-4.063.257-4.383-1.827-9.245-3.246-13.655-1.33-4.134-2.649-8.123-4.487-12.187-.74-1.636-1.422-3.3-2.661-4.772-.62-.344-.7-.47-1.369-.412l-.262.164c-1.347.942-1.781 3.876-1.733 5.474.1 3.283 1.059 6.72 2.348 9.995.532 1.354 1.04 2.709 1.924 3.975.831 1.189 2.064 2.245 3.114 3.299-.262-2.317-1.354-4.65-2.012-6.958-.649-2.28-.987-4.54-1.423-6.818 1.527 2.218 3.792 5.03 4.569 7.443.673 2.087.452 3.86.142 5.795zM86.69 119.818l-.305-.755.255-.367-.14-.301c-4.088-1.974-8.759-2.548-12.948-2.51l-.065.139c.168.573.87.968 1.33 1.407 1.158 1.102 2.958 1.951 4.492 2.296 2.024.455 3.94.635 5.938.726.484.022 1.235.153 1.607-.076zM89.895 115.668c-1.189-.812-2.275-1.588-3.383-2.497a39 39 0 0 1 4.977 2.345c-.734-1.1-1.977-2.423-2.034-3.583-.825-.768-2.651-1.159-3.717-1.615l-4.175-1.968-.073 1.29c.078 1.828 1.772 3.942 3.224 5.403.46.463.857.771 1.457 1.061 1.578.761 3.336 1.222 4.994 1.66.444.116 1.064.333 1.472.229-.479-1.042-1.718-1.679-2.743-2.325M188.827 9.293l.058.223.053.242.123.23c.346.684.423 1.6.567 2.307.65 3.206 1.044 6.476-.242 9.269-.129.278-.463.718-.509 1.007-.029.188.129.68.169.898.139.767.3 1.553.363 2.315.093 1.125-.053 2.261-.129 3.356-.028.412-.149.922-.001 1.347 2.205-.624 4.885-1.198 7.387-.053l1.861.968c.624-2.016.469-3.66-.161-5.883-.124-.439-.214-1.065-.427-1.48l-.201-.316c-.255-.436-.399-1.106-.508-1.563-.372-.24-.388-.246-.562-.611-.627.735-1.152 1.48-2.255 1.698l-.29-.092-.237-.375.131-.14c.342-.38.409-.944.514-1.439.367-1.74.359-3.434.192-5.286-.595-4.418-2.797-9.23-6.514-12.866l-1.141-1.193-.227-.077-.079-.158c-.258-.378-.847-.667-1.251-.914l-.008.213.228.242c-.041.192-.1.25.004.454.507.992.722 2.045.931 3.066.681 3.331.6 7.254-.725 10.115l-.165.29c-.264.43-.269 1.088-.063 1.619.3.777.904 1.502 1.334 2.24.38.654.664 1.329 1.063 1.98l.416-.034-.1.527.122.096c.438-.399.376-.773.498-1.297.02-.082.089-.156.14-.22l-.114-.326.333-.211.002-.137c.026-1.282.288-2.496.189-3.803l-.409-3.88c-.076-.567-.306-1.357-.25-1.883l-.054-.242-.057-.223zM179.541 27.683c-.213 1.978-1.091 4.165-1.902 5.923-.244.529-.71.926-.905 1.48l-.044.132c-.364 1.064-.073 2.557.068 3.742 1.731-1.342 3.104-2.951 4.783-4.338.455-.375.909-.77 1.413-1.094.323-.207.796-.393.981-.708.11-.188.035-.126.217-.232.312-.182.478-.272.594-.607.633-1.827 2.127-3.335 2.32-5.339.483-5.002-3.038-9.77-6.607-14.037l-.162.028c-2.006 1.978-4.899 3.7-7.5 5.087-1.588.845-3.123 1.507-4.519 2.59-1.436 1.15-2.486 2.592-3.565 4.02-1.738 2.302-3.519 4.689-4.611 7.369 3.62-2.346 7.841-5.618 12.78-5.908.111.108.393.33.457.446.248.45.089 1.638.206 2.183.308 1.434.962 3 1.407 4.442.493-.456.79-1.371 1.09-1.966a55.3 55.3 0 0 0 4.311-11.62c.386 2.72-.346 5.866-.812 8.407"/><path fill="#49376c" d="M162.652 48.606c1.456-1.916 2.568-4.202 4.315-5.898.129.634-1.132 2.324-1.429 2.933l-4.762 9.83c-.768 1.642-1.591 3.208-2.198 4.93 1.265-1.05 2.401-2.085 3.907-2.886.467-.248 1.017-.598 1.581-.686.555-.086.94.065 1.455.382.294.182.441.321.78.326.038-.291.056-.56.285-.76l.151-.121c-.01-.509.408-.987.608-1.45l1.178-3.069.153.125-.961 4.256c-.187.694-.659 1.498-.652 2.238.007.836.369 1.817.537 2.677.478 2.437.689 4.707.358 7.032l1.697-3.318c1.645-3.677 3.278-7.6 4.224-11.572 1.83-7.687 1.43-17.306-2.541-25.459-1.366-.05-2.976.712-4.043 1.267-3.631 1.885-6.29 4.219-9.1 6.908-1.006.838-1.853 1.877-2.719 2.837-1.422 1.573-2.892 3.344-3.965 5.15-2.825 4.754-4.338 10.846-4.588 16.583-.082 1.86.181 3.752.248 5.636 1.361-2.671 2.339-5.588 3.575-8.335 1.281-2.844 2.926-5.459 4.578-8.092 1.475-2.351 3.028-4.907 5.018-6.9l-5.866 11.133c-1.723 3.748-2.97 7.844-4.082 11.857-.41 1.48-1.197 3.63-.928 5.25l.312.095c.289-.166.362-.293.463-.598.38-1.16.971-2.248 1.43-3.376 2.789-6.849 6.549-13.023 10.979-18.926zM30.719 188.024l-.235-.007c-.523.221-1.377.209-1.995.28-2.01.228-3.998.926-5.423 2.068-1.305 1.045-2.487 1.991-3.66 3.171l.161.734a1.7 1.7 0 0 1 .666.229l.198.122c.323-.067.657-.034 1.002-.017l.191.21-.268.438-.424.045c.086.902-1.83 2.526-2.429 3.216-1.423 1.643-3.09 3.442-4.044 5.37-.123.251-.156.198-.44.27l.082.451c-.064.059-.157.137-.195.212-.269.525-.499 1.204-.824 1.688-.833 1.24-.936 2.691-1.333 4.088-.114.403-.053.827-.174 1.197-.235.726-.11 1.529-.05 2.324l.222.084.08-.317c.876-.002 2.153-1.476 2.766-1.972 2.307-1.868 4.883-3.876 7.75-5.091 2.262-.957 4.753-1.553 7.027-2.482.984-.402 2.749-1.636 3.818-1.507.105.834-.573 1.707-.967 2.363 3.451-.45 5.646-1.646 8.14-3.514.534-.399 1.198-.705 1.548-1.248.113-.176.214-.354.352-.513.164-.191.29-.332.374-.572.173-.483.537-.843.71-1.303l.043-.133.301.016.11.306-.343.107c.001.695-.355 1.332-.618 1.937-.85 1.965-2.066 3.669-3.258 5.433-.444.657-1.183 1.485-1.224 2.294l.21.222c.46.059.896.096 1.335.035 5.241-.72 10.263-5.255 12.336-9.285.325-.632.587-1.32.754-2.02.112-.461.114-1.119.388-1.496l.099-.103c-.074-.615.16-1.062.375-1.587a7.2 7.2 0 0 1 1.416-2.379l-.14-.336a10.4 10.4 0 0 0-2.026-1.168l-.235-.1-.675-1.722c-2.054.399-4.276.449-6.294.915-4.528 1.047-8.728 3.098-12.71 5.023-1.772.857-3.622 1.636-5.285 2.633-2.032 1.218-3.97 2.561-5.744 4.052l-2.154 1.951c-.274.268-.578.72-1.023.766 1.423-1.251 2.571-2.749 4.028-3.979 5.187-4.38 11.922-7.509 18.513-10.217l-.336-.341c-2.682-2.749-1.156-5.503-.64-8.158.168-.872.126-2.234.053-3.162l-.075-.059c-.454.669-1.225.886-1.991 1.225-1.18.524-2.37.995-3.498 1.589l2.273 1.002.155.374c-.065.07-.093.181-.194.211-.1.028-.578-.088-.736-.11-.763-.103-1.532-.208-2.29-.25-1.4-.076-2.588.019-3.857.337-2.412.601-4.122 1.634-5.895 3.063-.37.298-1 .684-1.17 1.115-.104.262-.033.168-.228.391l-.121.125c.234.171.368.319.65.383.938.216 2.018.14 2.98.273 1.294.178 2.588.555 3.88.802l.236.007zm18.382 1.861.362.203c-.229.297-.498.797-.858.955-.19.084-.207.206-.307.359-.088.136-.191.2-.322.299-.468.349-.673.875-1.036 1.308-1.093 1.305-1.72 3.012-2.702 4.394-.096.133-.066.072-.073.266l-.515-.112c.123-1.043 1.346-2.011 1.689-3.035.084-.253.194-.224.296-.413l.056-.212c.06-.213.12-.277.292-.413.395-.31.597-.751.886-1.14.62-.838 1.353-1.833 2.232-2.459M128.638 88.02c1.03.265 2.128.802 3.127 1.213-1.142-1.058-2.434-2.103-3.755-2.967-2.595-1.698-6.787-3.213-9.67-2.96l-.159.179c.022.208.071.326.21.516 1.286 1.761 3.107 2.964 4.875 4.313.946.721 1.638 1.444 2.796 1.835.334-.363-.289-2.083-.036-2.746.677-.583 1.678.66 2.612.616M105.96 121.282c-.752-.229-1.343-.607-2.056-.752l-.266-.35c.047-.062.061-.158.141-.185.008-.002.472.138.525.153.701.2 1.438.449 2.053.222.121-.71-.363-1.538-.673-2.26-2.411-1.645-5.529-2.409-8.25-3.174l-2.937-.932c-.86-.25-1.616-.353-2.446-.766l-.155-.08a1.4 1.4 0 0 0-.38.321c.586.701 1.055 1.467 1.666 2.151 2.262 2.535 4.884 4.516 7.793 6.386 2.285 1.47 5.042 1.761 7.446 1.55l.049-.258c-.846-.691-1.324-1.501-2.363-1.963zM104.052 125.696c.335-.067.452-.008.606-.285-2.418-1.052-4.444-2.417-6.755-3.601-1.953-1-4.415-1.815-6.487-2.352-.81-.209-1.63-.473-2.426-.417l-.155.178c.007.256.04.52.151.777.357.828 3.483 3.095 4.393 3.555 2.275 1.148 5.206 2.484 7.672 2.558 1.032.031 2.044-.218 3.001-.413M106.785 117.383c.329.155.387.17.729.17.045-.617-.046-1.214-.143-1.846l-3.602-3.107c-.559-.444-.873-.986-1.4-1.406-.873-.695-1.639-1.487-2.407-2.272l.194.855c.361 1.444 1.126 2.91 2.029 4.235.176.258.498.845.739 1.042.414.34 1.166.64 1.645.901.785.428 1.496.906 2.216 1.428M108.468 134.847c-3.026-.01-6.105-.534-9.157-.672l-6.978-.222c-1.354-.022-2.63.125-4.02-.108l9.857-1.267c-.933-.435-2.057-1.054-3.029-1.294-1.072-.266-2.25-.24-3.31-.271-2.58-.076-5.295-.008-7.707.477-1.803.364-3.496.963-5.273 1.384-.142.178-.082.223-.045.455l.492.406c1.115.862 2.494 1.473 3.745 2.117 2.201 1.133 4.442 2.23 6.791 2.934.832.25 1.63.323 2.464.483 2.164.418 3.965.647 6.1.633 7.26-.047 14.462-2.689 18.576-7.42-.763.29-1.429.706-2.185 1.009-1.995.798-4.001 1.272-6.32 1.356zM131.68 87.123l-.38-3.602c-.239-1.373-2.302-2.646-3.476-3.568.423 1.367 1.279 5.244 2.506 6.13zM114.773 115.783l.033-.103c-.178-.6-.754-1.269-1.14-1.822-.818-1.17-1.649-2.343-2.306-3.572-.505-.945-.428-1.772-.78-2.7-.167-.44-.507-.807-.805-1.197-.86-1.128-2.053-1.857-3.255-2.675.68 1.666 1.729 3.663 2.734 5.242 1.115 1.755 3.469 6.052 5.519 6.827M121.263 98.14l1.5-1.456c-2.353-1.269-4.547-2.156-7.11-2.666.98 1.416 2.514 2.716 3.735 4 .395.416.814 1.11 1.331 1.377z"/><path fill="#49376c" d="M77.127 185.587c1.398-.946 2.81-2.008 3.894-3.242 1.815-2.067 2.85-4.548 3.923-7.039l1.677-3.835c-1.336 1.092-2.699 2.23-4.26 3.082-2.847 1.556-6.193 2.275-9.584 2.881-1.884.337-3.857.534-5.578 1.203-2.03.789-2.919 2.879-4.825 3.631-.882.347-1.947.433-2.982.027-1.328-.522-1.605-.856-2.292-2.015-.62-1.045-.835-2.139-1.032-3.231-.91-5.04 1.063-8.683 2.358-13.073-3.682 2.072-7.795 3.233-10.92 6.006-1.907 1.658-3.375 3.935-4.254 6.247-.342.9-1.426 3.549-.945 4.439.445.035.712-.028 1.053-.225.616-.356 1.082-1.052 1.597-1.527l3.286-2.823c-.744 1.432-1.809 2.78-2.965 3.932-1.129 1.124-2.434 2.041-3.147 3.465-.352.704-.564 1.525-.482 2.37.078.824.386 1.25 1.075 1.883.887.169 1.898-.368 2.682-.585a32 32 0 0 1 3.793-.806c3.287-.478 6.733-.249 10.042-.598l.194-.021c-1.368.977-3.474 1.243-4.783 2.251l.171.626a9.5 9.5 0 0 0 2.191.741c1.45.304 3.098.316 4.524.328 5.882.055 11.227-1.237 15.589-4.092M45.9 182.86c2.203-1.372 4.387-2.144 7.237-2.44a1.3 1.3 0 0 1-.308.323c-2.44.802-4.753 1.976-7.318 2.54.123-.16.233-.288.389-.423M127.773 97.278c-.793-1.328-1.078-3.057-1.456-4.468-1.713-.884-3.552-1.512-5.362-2.086 1.719 2.711 4.1 5.926 7.149 7.576l.205-.087zM120.993 113.484l-.867-1.026.076-.199c1.971 1.496 4.011 3.304 6.29 4.336.51.231.91.31 1.378.186-.473-1.664-1.9-3.694-3.226-5.069-3.888-4.032-7.734-5.53-13.023-6.385.913 2.644 2.021 5.303 3.86 7.707 2.418 3.162 6.034 5.731 9.952 6.843l.293-.18c-.005-.515-.389-.902-.729-1.349-1.211-1.591-2.863-2.978-3.868-4.636zM136.623 103.095c-.442-1.918-1.289-3.595-2.228-5.43l2.181 1.992c.109-.672.4-1.773.221-2.48-.087-.344-.594-1.007-.813-1.324-2.114-3.045-3.957-5.095-7.727-6.364-.245.838-.293 1.797-.196 2.716.423 4.016 2.839 8.343 6.291 11.443l.219-.004c.7.024 1.672.768 2.209 1.211l.163.136-.318-1.896z"/><path fill="#49376c" d="M84.129 162.66c4.203-3.655 8.589-7.126 12.397-11.13 1.027-1.08 2.18-2.142 2.903-3.431-1.804.87-3.459 1.992-5.137 3.017l-12.725 8.708-2.652 1.99c-.68.488-1.464.951-2.004 1.563-.127.143-.204.265-.388.356l-1.049.563c.38-.875 1.052-1.651 1.605-2.426 2.305-3.234 5.567-6.134 8.919-8.505l5.2-3.428c-2.315.385-4.403 1.367-6.77 1.692-2.225.305-4.644.095-6.855.4-2.047.283-3.83 1.235-5.417 2.228-2.532 1.583-4.653 3.382-6.817 5.324-1.795 1.537-3.518 3.971-4.611 6.011-1.64 3.059-3.728 9.279-2.096 13.005.322.737.68 1.37 1.494 1.809.174.004.366.057.524.013.17-.047.735-.743.876-.889.891-.925 1.951-2.168 3.282-2.61.564-.188 1.23-.209 1.834-.314l4.836-.87c5.082-.819 9.1-2.545 13.107-5.05.117-.429.633-.773.938-1.096l1.898-2.196c.716-.895 1.237-1.94 1.972-2.812a12.5 12.5 0 0 0 1.472-2.285c.95-1.982 2.585-3.762 3.835-5.581-1.553.694-2.933 2.035-4.243 3.044l-6.929 4.991c-1.756 1.151-3.547 2.297-5.655 2.989zM129.852 112.107l.283-4.04c.007-.221.11-.837.032-1.037-.072-.187-.518-.636-.668-.821-.586-.724-1.152-1.414-1.586-2.206.838.356 1.556 1.355 2.46 1.48.541-.397.851-.841 1.038-1.47-.643-1.621-2.435-3.099-3.989-4.14-1.333-.892-2.16-1.452-3.699-1.352-.13.066-.184.086-.287.166-.677.527-.672 2.692-.598 3.545.399 4.535 3.144 9.124 7.002 12.617l.114-.004zM118.92 129.056l.307-.394-.334-.315c-2.218-.665-4.489-1.375-6.74-1.624-2.146-.238-4.249.051-6.259.328-3.287.454-6.55 1.111-9.589 2.098-.271.186-.167.071-.316.343 2.69 1.324 6.006 2.255 8.862 2.718 5.648.917 10.183-.349 14.069-3.154M193.039 36.178l-.014.138c-.217 2.013-.877 3.95-1.494 5.824-2.661 8.072-7.306 15.361-12.976 21.678l-3.254 3.62c-.982 1.044-2.503 2.16-2.962 3.511.591-.031 1.148-.537 1.508-.904.817-.835 1.948-1.361 2.965-1.987l2.825-1.877c2.768-1.882 5.403-3.978 7.873-6.15-.299.875-1.398 1.8-2.025 2.493-4.84 5.352-10.479 9.923-15.668 14.974l-2.232 2.244c-.245.262-.691.64-.84.96-.093.202-.047.73-.065.973l-.278 2.13c2.168-.704 3.992-1.675 5.933-2.686 11.011-5.741 18.658-15.263 22.35-26.454l.035-.107c1.988-5.031 5.064-15.022 1.951-20.758a3.9 3.9 0 0 0-.802-1.06c-.384-.362-.716-.79-1.054-1.184-3.299.184-6.047 1.454-8.457 3.112-1.112.765-2.126 1.705-3.254 2.428-.83.534-1.509 1.459-2.159 2.172-1.194 1.307-2.476 2.762-3.099 4.426-.604 1.612-.634 3.77-.667 5.567-.005.28-.015.46.137.74l.453.083c1.201-1.481 2.101-3.265 3.087-4.89.505-.832.958-1.847 1.824-2.4-.303 1.674-1.467 3.476-2.122 5.049l-4.174 10.398-3.023 6.003c-.476 1.052-1.546 2.177-1.681 3.367l.233.027 6.984-8.502 2.106-2.251a81 81 0 0 0 7.295-10.22 48 48 0 0 0 3.437-6.944c.462-1.155.735-2.452 1.304-3.543m-9.573 5.386c-.223.454-.457 1.265-.917 1.536a1.41 1.41 0 0 1 .563-1.345c.165-.129.179-.123.354-.191M160.914 75.959c-.872 4.768-2.246 10.039-4.555 14.204-1.592 2.87-3.716 5.377-5.511 8.113-1.088 1.659-1.842 3.496-2.66 5.301-.59 1.304-1.28 2.531-1.742 3.9l5.926-4.344c1.536-1.014 3.209-1.836 4.843-2.728 2.118-1.156 3.409-2.684 4.386-4.734 1.843-3.868 2.04-8.385 2.729-12.66l2.025-13.074c.326-2.974.376-6.37-.34-9.473-.166-.72-.25-1.467-.774-2.115-.557-.01-.959.28-1.376.523-1.332.778-2.367 1.793-3.425 2.83l-.25.229c-3.208 3.29-5.239 6.99-7.585 10.84-2.377 3.904-5.18 7.9-6.04 12.551-.174.945-.033 1.861.132 2.86 1.969-2.135 3.672-4.768 5.141-7.239.748-1.257 1.377-2.709 2.313-3.836-1.371 4.534-3.573 8.738-4.923 13.278-.315 1.059-.415 2.251-.654 3.346 2.936-2.716 5.174-6.591 6.938-10.103 1.077-2.143 6.977-16.741 7.731-17.243.165.7-.584 2.44-.781 3.16zM114.52 122.3c1.459.504 2.522.62 3.923.448l.039-.117c.562-1.076 2.908-1.672 4.139-1.925-2.722-1.545-5.531-2.481-8.49-3.206-1.318-.323-3.617-1.083-4.674-.483l-.049.094c-.034.217.041.372-.079.572l-.071.092.078.203c.194.524.191.84-.062 1.254l-1.848.235c.207.374.555 1.247.849 1.53.385.374.376.195.58.742.883.688 1.824 1.496 2.799 2.052 1.917 1.094 3.448 1.828 5.58 2.019l.047-.223c.015-.147-.098-1.706-.129-1.74-.054-.058-.621-.285-.731-.336-.728-.338-1.955-.767-2.499-1.328z"/><path fill="#49376c" d="M140.976 109.916c.701-.454.937-1.63 1.307-2.351.962-1.881 2.078-3.722 2.91-5.666.727-1.701 1.348-3.559 1.464-5.479.187-3.077-.873-6.513-2.405-9.549l-.701-.05-.122.289c-.599.275-1.285.945-1.609 1.472l-.183.327c-.921.943-1.21 1.929-1.607 3.169-.677 2.11-1.074 4.39-1.488 6.595-.372 1.983-.521 4.161.136 6.294.253.818.688 1.584 1.038 2.384.374.857.684 1.769 1.26 2.565M135.132 113.786l.132.243c.419.817.566 2.297.625 3.133 1.014-.53 1.404-1.038 2.082-1.846l.769-1.097c.654-1.035.705-3.053.195-4.346-.617-1.564-1.921-2.643-3.182-3.854-.273-.263-.862-.833-1.195-.997-.447-.221-.402-.011-.739-.446-.295.072-.398.159-.58.362-1.795 1.825-1.888 6.123-1.449 8.708.168.994.668 3.508 1.544 4.22.614-.001.907-.08 1.281-.462.715-.733.497-2.274.451-3.286-.008-.179 0-.128.068-.331zM213.919 28.8c-.018.778-.494 1.601-.705 2.33-1.311 4.514-2.932 8.881-4.781 13.162-.305.708-.756 1.357-1.062 2.052-1.173 2.668-3.028 5.095-4.78 7.421-.692.919-1.415 2.059-2.26 2.845l-3.229 3.388c-1.438 1.504-2.67 2.445-3.494 4.379 3.135-1.736 5.566-4.535 8.424-6.621 1.32-.963 2.995-2.01 4.733-2.406.687-.156 1.35-.21 2.08.15l-.056.331c1.123.836 1.418 2.437 1.801 3.568.906-.524 2-1.016 2.786-1.652 1.215-.984 2.487-1.875 3.541-3.016 1.569-1.7 2.766-3.748 3.76-5.805-2.305.294-4.172 1.726-6.466 2.185-.727.145-1.426.268-2.226.033l-.15-.308c.896-1.023 3.259-1.651 4.573-2.332 2.346-1.214 3.822-2.811 5.261-4.8.927-1.282 1.532-3.044 2.008-4.564l-.216-.053.023-.286.278-.013-.164-.273-1.262.517c-.329-.043-.425-.007-.701.09l-2.755 1.06c-.517.212-1.092.53-1.712.526l-.146-.005-.629-.025-.133-.333c.315-.381.327-.474.894-.573l.073-.32.483-.091.134-.46c.402-.173.513-.337.7-.699l.058-.119.319-.032c.057-.251.095-.454.273-.644.401-.43.569-1.095.757-1.65.921-2.72.15-5.884.514-8.779.247-1.954.95-3.964 1.723-5.724 1.003-2.286 2.399-4.14 4.002-6.047.372-.443 1.766-1.568 1.839-2.035l-.558-.04-.088-.099c-.13-.02-.173-.032-.312-.014-.981.127-2.156.667-3.013 1.043-4.297 1.883-8.072 4.997-10.523 8.61-.382.563-.885 1.132-1.181 1.738-.239.49-.476.836-.867 1.231-.217-.26-.369-.245-.689-.351l-.021-.443-.469-.249-.068-.246c-1.125.153-2.319 1.629-2.816 2.458-.193.323-.299.673-.554.957-.347.384-.492 1.019-.672 1.502-.554 1.493-1.044 3.4-1.035 5.065l-.286.15-.033.35c-.361-.17-.697-.81-.858-1.144-.45-.942-.227-1.883-.864-2.803-.285-.098-.426-.142-.697-.045-.498.177-.895.809-1.311 1.118-.246.182-.325.318-.458.576-.087.171-.245.244-.417.338.213.898-.601 1.909-.68 2.882-.155 1.902.367 3.931.306 5.848-.053 1.68-.287 3.369-.493 5.014-.101.807-.318 1.704-.252 2.538.441.007.84-.27 1.096-.544.574-.615.981-1.861 1.598-2.319.247-.182.277.03.369-.33.191-.75 1.196-2.598 1.844-3.08-1.279 3.227-3.073 5.939-5.007 8.789-.265.388-.574 1.251-1.03 1.412l.011.21c.006.436-.36.889-.573 1.249l-1.82 3c-.225.396-.529.72-.469 1.212.787.026 1.533-1.006 1.995-1.485 5.38-5.575 9.635-11.888 12.895-18.83.768-1.637 1.546-3.396 2.141-5.112.482-1.386.737-3.44 1.745-4.53zM56.262 202.021c.55-1.957 1.25-4.21 2.52-5.793.858-1.07 2.03-1.935 3.025-2.902.603-.586 1.285-.939 2.065-1.335-1.368.042-2.784.148-4.183.025-.828-.074-2.317-.417-3.035-.278-.26.05-.572.245-.81.347-.329.327-.848.739-.92 1.211l-.004.168-.25.108-.688 1.711c-.099.173-.157.276-.191.48-.485 2.888-1.204 5.987.256 9.102l.272.104.134.292.2.083c.071-.034.173-.075.235-.125.735-.599 1.081-2.294 1.374-3.198M124.992 133.796l.268-1.469c-.993-.205-3.209-.468-4.022-.132-.523.215-.899.708-1.286 1.069-.499.467-1.076.862-1.651 1.255-4.662 3.191-9.168 5.854-15.284 6.995-.009.155-.014.05.089.318l.239.097c4.15 1.663 10.183 1.904 13.854.586 4.472-1.606 6.553-4.524 7.793-8.719M133.19 126.755c.208-.651.505-1.431.421-2.163-.041-.357-.141-.683-.452-.959-1.567-1.39-4.602-1.376-6.509-1.475-2.445-.127-5.756.545-7.272 2.038l-.395.593c-.007.25.032.467.146.716.687 1.494 2.785 3.117 4.364 3.895 1.74.857 4.292.971 5.943.589 1.957-.452 3.017-1.631 3.754-3.234"/><path fill="#49376c" d="m47.561 223.518.117.004c1.759.079 3.437.442 5.185.293 5.086-.435 9.544-2.069 13.816-4.021 8.154-3.725 15.54-8.868 21.6-14.839l4.584-4.688c1.509-1.585 3.14-4.109 5.522-4.639.298-.5.344-1.227.346-1.83l-12.911 5.256c-1.722-3.457-2.893-6.468-3.761-10.054l-2.885 6.565c-1.489 3.31-3.13 6.515-5.139 9.532-1.218 1.832-2.773 3.864-4.649 5.163l2.555-4.255 6.993-15.402c.316-.662.59-1.286.74-2.018-1.716 1.89-2.597 4.139-3.987 6.231-3.091 4.654-6.336 9.236-9.952 13.537-1.852 2.202-3.714 4.47-5.768 6.515-.46.459-1.3 1.584-1.864 1.826-.266.114-.28-.195-.383.191-.186.695-1.508 1.452-2.036 1.966l-.147-.118 3.298-3.8c.415-.488.868-1.301 1.44-1.609l.072-.2c.475-1.252 1.76-2.465 2.535-3.581l5.801-8.658c2.56-3.928 4.6-8.214 7.342-12.03-1.636.586-3.292 1.292-5.014 1.724-2.753.689-7.061.64-8.506 3.015-.263.062-.282.017-.408.238-.403.701-1.176 1.365-1.744 1.971-.492.525-1.36 1.86-1.216 2.62 1.664.051 3.393-1.348 4.933-1.766-1.575 1.528-3.502 2.868-4.849 4.57-1.247 1.577-2.066 3.403-2.938 5.196l-5.21 10.874c-.154.292-.048.119-.228.343-.143.18-.068.059-.11.29-.068.378-.435.65-.663.947l-1.524 2.111c-.483.598-1.659 1.541-1.565 2.34l-.275-.029-.013.18z"/><path fill="#49376c" d="M87.108 192.935c-.704-1.58-.6-3.608-.694-5.193-.186-3.056-.475-6.274-.221-9.252-1.04 1.405-1.867 2.933-2.151 4.712-.437 2.74.411 6.319 1.264 9.202l1.411 4.163c4.416-1.872 9.019-3.442 13.3-5.508 2.192-1.058 4.324-2.132 6.092-3.681 1.415-1.239 2.424-2.652 3.318-4.253.522-.937 1.134-1.997 1.377-3.056l.09-.594-.186-.193c-.45-.494-.646-1.201-.93-1.76-2.154-4.234-3.25-8.468-2.904-12.731a26.4 26.4 0 0 1 2.196-8.676c.27-.61.658-1.152.943-1.752l1.236-2.418c.425-.753 3.135-4.783 2.996-5.369-.183.03-.598.046-.735.122-.54.303-1.14 1.219-1.563 1.671-2.064 2.208-4.026 4.722-6.488 6.576l-4.223 3.464c.562-1.025 1.432-1.818 2.199-2.701.798-.918 1.561-2.035 2.294-3.018.787-1.053 1.277-2.263 2.016-3.335.593-.861 2.079-2.128 1.978-3.278-.341-.23-.433-.37-.828-.343-1.002.07-1.836.898-2.528 1.416a37.9 37.9 0 0 0-8.866 9.312c-3.455 5.113-6.419 10.411-7.995 16.484a47 47 0 0 0-1.271 7.296c-.265 2.847.436 10.808-1.127 12.691zm13.103-21.74c-.433 2.174-1.138 4.247-1.79 6.341-1.49 4.788-3.08 9.76-6.739 13.341-.497.486-.938.929-1.504 1.362l-.331.007c4.872-6.181 6.687-14.184 10.364-21.051M145.403 115.754l-.006-.318c-.079-1.595-.444-3.306-1.831-4.643l-.432.02c-.338.356-.675.688-.864 1.142-.341.82-.874 1.671-1.354 2.419-1.64 2.551-3.88 5.455-7.55 5.872l-.162.171c.048 1.091 1.312 2.347 2.105 3.273 2.368.445 4.187.552 6.074-.467 1.637-.883 3.413-2.92 3.615-4.756.023-.213.023-.326.121-.514.309-.595.247-1.504.284-2.199M201.142 76.314l.242-.295c3.105-4.079 5.286-9.348 6.021-14.57.15-1.064.379-2.198.059-3.333l-.296-.108c-2.004.798-3.894 2.179-5.645 3.325-3.653 2.395-7.049 4.744-10.093 7.741l-7.113 7.446c-5.461 5.093-11.522 9.882-18.291 13.638-.096.032-.244.224-.313.294l.142.4.3.007c.82-.108 1.906-.888 2.633-1.234l10.085-4.882c1.514-.666 3.069-1.377 4.7-1.851 1.659-.482 4.038-.65 5.456-1.45.526-.296.961-.863 1.373-1.277l2.557-2.597 4.241-4.183c.546-.546 1.363-1.148 1.747-1.799.318-.54 1.114-.906 1.318-1.458.139-.377.539-.728.807-1.034l2.204-2.3c-2.375 5.413-6.113 9.795-10.11 14.148 1.075-.07 2.383-.037 3.382-.285.841-.209 1.444-.919 1.967-1.48l2.625-2.863zM129.569 143.796l1.898-1.307c2.611-2.222 4.355-6.431 4.024-10.019-.088-.954-.098-2.605-.959-3.399-1.816 2.051-4.133 2.931-7.007 3.637-.625 4.084-2.148 7.887-4.213 11.32-.701 1.164-1.669 2.144-2.587 3.158 1.828-.269 3.311-.89 4.938-1.504 1.486-.561 2.634-.991 3.907-1.885zM158.223 123.315c-4.129-1.276-8.367-1.201-12.194-.492 1.29.767 2.717 1.332 4.062 1.998 3.014 1.492 5.947 3.081 8.618 5.131-1.424-.476-2.78-1.175-4.189-1.713-2.421-.924-5.033-1.706-7.505-2.408-.958-.272-2.13-.709-3.072-.671l-.029.261c.587.718 2.328 1.289 3.208 1.738l2.279 1.272c.492.249.914.557 1.354.885 3.35 2.497 6.586 5.566 8.706 8.941-2.968-2.407-6.089-4.906-9.352-6.95-1.479-.927-3.035-1.698-4.567-2.528 1.187 1.501 2.745 3.058 4.086 4.47.771.812 2.1 1.945 2.397 2.922l.06.238c.73.3 1.419 1.592 1.822 2.211l-9.792-7.94c-1.119-.849-2.267-1.789-3.467-2.53-1.636-1.009-3.342-1.73-5.082-2.501-.302.158-.445.35-.488.695-.086.69.204.93.721 1.495 1.786 1.952 2.194 5.645 2.831 7.922.388 1.39.913 2.822 1.521 4.185 1.391 3.115 3.393 5.809 5.812 8.494 1.622 1.802 4.793 3.83 7.011 4.823 4.566 2.045 8.723 2.99 13.333 2.511 1.631-.169 3.162-.481 4.869-.424 1.623.054 3.345.449 4.987.752-.499-1.488-1.134-3.168-1.253-4.658-.146-1.828.262-3.576.517-5.316.474-3.23.034-6.78-1.827-10.045-.894-1.567-2.08-3.385-3.388-4.756-1.139-1.194-2.493-2.213-3.781-3.274-.57-.47-1.381-1.292-2.06-1.573-.676-.28-1.289-.889-1.916-1.283-1.37-.861-2.709-1.428-4.232-1.882m-21.984 3.23c1.621.406 3.289 2.148 4.284 3.363l4.888 6.497c-1.186-.645-2.259-2.001-3.213-2.936l-3.811-3.684c-.741-.728-1.671-1.588-2.031-2.501-.114-.29-.179-.468-.117-.739m21.367 22.41c2.904.694 5.749 1.411 8.612 2.391 1.446.494 2.941.984 4.275 1.782l.066.339c-.402.338-.404.426-1.039.351-2.276-.268-5.093-1.65-7.282-2.568-1.53-.641-3.225-1.236-4.586-2.208l-.044-.087zm10.945-1.96c1.999 1.786 3.74 3.217 5.221 5.374l-.056.165-.134-.018c-2.449-1.59-4.092-3.01-5.031-5.521"/><path fill="#49376c" d="m200.912 84.537-.262.015-.117.042c-1.718.6-3.612.96-5.381 1.478l-13.358 3.667-14.587 3.393c-.619.163-2.199.5-2.56.931-.147.176-.237.715-.324.947l-1.115 2.514c-.396.774-1.217 1.6-1.492 2.392l-.009.126c3.981-.705 7.817-1.819 11.444-3.188 1.87-.706 3.782-1.402 5.26-2.602.139-.114.236-.147.434-.168-.946 1.25-2.293 2.155-3.639 3.046-2.792 1.848-5.792 3.262-8.95 4.635-1.307.568-3.247 1.141-4.187 2.089.131.343.269.489.542.764 5.423-.75 10.162-2.563 15.282-3.9 2.275-.594 4.892-.839 7.04-1.618 3.565-1.292 6.788-3.186 10.303-4.568l6.454-2.583c.916-.363 2.037-.643 2.861-1.116-.674.69-1.886 1.16-2.74 1.685-4.045 2.484-8.159 5.235-12.997 6.668.835.257 1.802.235 2.674.437 1.552.36 3.11.915 4.657 1.346 1.001-.191 1.83-.665 2.696-1.072 2.869-1.35 5.143-2.989 7.217-5.168.698-.733 1.457-1.483 1.96-2.353 1.172-2.024 1.776-4.97.822-7.49a25 25 0 0 0-3.85-1.16l-4.293-.877c-3.045-.412-6.357-.553-9.22-.138-2.412.35-4.798 1.137-7.006 1.889-3.093 1.053-6.078 2.437-8.503 4.343 4.07-.991 8.272-1.573 12.43-2.36l6.982-1.297c1.688-.31 3.469-.753 5.271-.732l.261-.014zM145.984 119.499c-.228.369-.502.621-.415 1.096l.398.116c.711.116 1.685-.086 2.373-.153 3.274-.322 6.378-.708 8.847-2.476 1.789-1.281 3.853-3.574 4.297-5.715.201-.972.068-2.222.059-3.25-.011-1.416-.254-2.83-.639-4.266-.115-.431-.222-1.036-.482-1.431-.368-.557-1.021-1.139-1.505-1.638-.421.175-.923.336-1.277.593l-2.293 1.922-7.754 8.39c.855-.271 1.519-.747 2.297-1.122 2.14-1.032 4.078-1.994 5.912-3.41.848-.654 1.541-1.478 2.45-2.064-1.524 2.945-3.352 5.442-5.901 7.695-2.17 1.918-4.49 3.528-6.367 5.713M137.287 138.973l-.245-.479c-.524.15-.813 1.219-.976 1.706-.186.557-.043 1.314.007 1.934l.159 3.144c.052 4.097-1.036 8.146-2.83 11.596-.738 1.419-1.51 2.719-2.719 3.828.292-.934.93-1.809 1.293-2.736.716-1.828 1.047-3.738 1.256-5.735.13-1.24.267-2.455-.069-3.761-.948 1.311-1.482 3.135-2.203 4.608-1.441 2.946-3.724 5.535-6.177 7.778l3.486-7.464c.999-2.386 1.878-4.642 2.112-7.312-1.141 1.206-2.166 2.536-3.367 3.686l-3.848 3.529c-.702.651-1.533 1.329-2.062 2.11l-5.25 7.603c.946-3.348 1.841-6.677 3.075-9.907l1.074-2.461c.117-.231.374-.394.452-.62.232-.669.405-1.143.443-1.878-.804.376-1.354 1.065-2.003 1.612l-3.498 2.971c-.705.731-1.517 1.575-2.002 2.457-2.949 5.366-3.953 12.347-2.562 18.912.213 1.006 1.065 4.122 1.988 4.828.728-.246 1.316-1.921 1.689-2.551 1.584-2.677 3.026-5.592 4.881-8.09l-4.006 12.016 2.723-.245c3.033-.529 6.606-2.068 8.594-3.999 1.796-1.743 3.179-3.849 5.081-5.51l4.149-3.246c1.695-1.486 2.99-3.181 4.034-5.124 2.396-4.461 1.906-11.314.138-16.622-.74-2.221-1.892-4.385-2.816-6.577z"/><path fill="#49376c" d="M158.6 122.549a34.6 34.6 0 0 0 5.893 1.884l8.654 1.732c.857.203 2.044.372 2.839.773-.741.177-2.021-.112-2.862-.208l-5.103-.573c-1.278-.169-2.564-.422-3.828-.446l-.157.254c.65.986 2.816 2.129 3.828 2.906 1.081.828 2.093 1.737 3.09 2.646 2.132.062 4.106-.412 6.169-.577 3.336-.268 6.789-.365 10.049-.857 4.026-.609 7.902-1.647 11.378-3.257 4.728-2.188 8.531-5.232 11.765-8.914.897-1.022 1.935-1.976 2.194-3.361-.374-.562-1.174-1.071-1.705-1.537-3.424-3.002-7.085-6.407-11.299-8.402-7.82-3.699-14.604-2.358-21.581-.602l-12.602 3.436c.66.218 1.576.001 2.234-.052l3.855-.164c4.808-.02 9.85.578 14.748 1.491 1.298.242 2.889.428 4.091 1.094-.201.016-.111.021-.332-.013-7.549-1.152-14.898-.446-21.942.588-2.032.298-4.136.499-5.962 1.219l-.223 1.163c-.108.876-.498 1.73-.788 2.545 2.881-.376 6.073.006 9.055-.014 3.369-.022 6.908-.469 10.329-.082l.146.018-.217.073c-.889.288-1.99.334-2.932.565l-12.688 2.729c-2 .37-3.901.229-5.652 1.125l4.554.47 9.699.512c.775.051 2.271-.107 2.967.224-.832.369-2.771.27-3.798.341l-5.345.502-5.784.37c-.891.063-2 .02-2.739.398zm50.202-5.758c-2.697 1.38-13.281-.165-16.658-1.057 4.212.156 8.274.104 12.539.528 1.345.133 2.774.193 4.119.529M220.52 76.621l-.258.01c-.62.245-1.716.202-2.444.25-2.471.163-5.348.085-7.68.595-3.067.67-5.995 2.797-8.579 4.24 2.824.169 5.849.9 8.716 1.283.515 2.055 1.457 6.194.299 7.843-.173.246-.191.383-.229.684l.298.283c1.31-.233 3.511.476 4.956.73.635.113 1.304.277 1.887.114 2.753-.768 4.877-2.649 6.644-4.505.449-.473 1.054-.964 1.318-1.548-.983-.671-2.161-.45-3.214-.825-.357-.128-.447-.16-.631-.458.275-.067.201-.006.354-.229.043-.062.051-.15.116-.191.156-.099 1.153-.096 1.402-.118 1.376-.122 2.772-.27 4.077-.574 4.461-1.04 8.797-4.699 10.299-8.533.153-.389.194-.772-.035-1.196l-.158.116c-1.357.947-3.267 1.203-5.134.88 1.851-1.24 4.199-2.216 5.71-3.788 1.543-1.606 2.31-3.852 3.231-5.836.941-2.03 2.332-4.253 4.071-5.742 2.194-1.88 5.204-3.427 8.005-4.582.848-.35 1.752-.651 2.648-.921.39-.117.978-.201 1.234-.482L257.5 54c.347-.035.216.033.402-.195-1.103-.784-7.462-.916-8.958-.9-.599.005-1.317.245-1.908.129l-.255-.058c-.57-.078-3.063.19-3.411.474-.59.182-1.236.238-1.838.398-.651.174-1.423.514-2.134.507l-.233-.007c-.435.624-2.231.883-3.008 1.29l-5.329 3.169c-.257.145-.259.198-.59.23-.108-1.275 1.707-2.045 1.369-3.516-.409-.073-.739-.123-1.12-.045-1.061.218-2.392.062-3.537.198-.935.111-2.852.37-3.556.81-.416.26-.963.456-1.435.647-.264.105-.452.236-.702.346-1.489.655-2.449 1.785-3.311 3.009-.204.29-.612.704-.71 1.041-.137.476-.383.682-.735 1.024l-.319-.019-.543-2.928-.374-.27c-.431-.08-.844-.115-1.253-.059-.639.087-2.726.615-3.108 1.002-.088.089-.058 1.42-.072 1.63a19.3 19.3 0 0 1-.732 4.047c-.789 2.74-1.886 5.432-3.318 7.865l-2.178 3.452c2.586-.708 5.034-2.236 7.367-3.368 4.007-1.945 8.166-3.74 11.985-5.925l6.957-4.167c1.407-.888 2.745-1.857 4.217-2.67-.132.472-1.96 1.36-2.44 1.72l-9.961 7.003c-3.496 2.37-6.823 4.659-10.743 6.546 2.756.29 5.433-.125 8.139.202l.137.018.258-.01.49.007.245-.006.243-.002.244.003c.174-.097.357-.063.574-.062-.167.084-.371.058-.574.062l-.244-.003-.243.002-.245.006-.49-.007zM115.596 188.86c.181.971.036 1.942-.037 2.874-.178 2.263-.608 4.48-1.168 6.63l-1.602 5.609c-.205.873-.56 1.682-.161 2.645.62-.003 1.388-.842 1.858-1.169 1.966-1.365 4.188-2.644 5.95-4.201 1.472-1.301 2.821-2.772 4.092-4.24a7 7 0 0 0 .928-1.406c.201-.39.48-.749.754-1.092-.22-.549-.353-.839-.814-1.283l-.148-.152c-.205-.203-.129-.129-.332-.294-2.677-2.185-5.243-6.656-5.733-9.585-.099-.592-.094-1.153-.062-1.727-1.708.294-4.314.879-6.131.047l-.404-.392c-.95.615-1.171 2.575-1.55 3.611l-2.006 4.656c-.995 2.583-1.718 5.529-1.826 8.414-.084 2.256.369 4.702.624 7.008a4.2 4.2 0 0 1-.493-.714c-.835-1.574-1.104-2.861-1.3-4.479-.576-4.756.888-8.432 2.477-12.527-2.217 2.175-4.729 3.726-7.546 5.268-.055 1.603.194 3.599.609 5.251.753 3 2.987 6.298 5.02 8.95.667.87 1.388 1.892 2.316 2.559l.346-.077c.365-1.628.689-3.179 1.253-4.742 1.02-2.828 2.393-5.481 3.304-8.366.446-1.418.763-2.907 1.078-4.374.185-.863.297-1.812.657-2.604zM137.604 193.419c-.165-1.972.196-3.985.449-5.874l1.769-11.647c.401-3.411.006-6.823.065-10.271-1.267 1.433-2.759 2.852-3.789 4.441l-.087.126c-.47.717-.533 1.786-.662 2.65-.942 6.297.646 12.675 1.001 19.141l.064 4.23c-.043 1.352-.182 2.766.161 4.161l.701.593c.58.004 6.476-5.805 7.236-6.652 5.139-5.73 8.189-12.993 8.694-20.887.072-2.663-.011-5.318-.75-8.058-1.313-4.861-4.024-10.333-8.087-14.288.096 1.198.147 2.487.482 3.694.23.829.686 1.66.983 2.484a33 33 0 0 1 1.07 3.68c.923 3.939.569 7.407.555 11.206l-3.741-14.091c-.47 1.252-.925 2.522-1.501 3.725-.292.606-.859 1.25-.97 1.926-.151.929.372 2.139.548 3.124.278 1.553.463 3.17.527 4.704.266 6.481-2.024 12.364-3.734 18.253-.326 1.121-.41 2.648-.984 3.63"/><path fill="#49376c" d="M100.656 201.67c-.625.15-1.123.453-1.694.688-.791.325-1.81.516-2.306 1.17.331.785 2.004 1.106 1.772 1.953-2.058 1.574-4.574 3.164-6.004 5.277-1.15 1.699-1.857 3.868-2.544 5.809-.38 1.076-1.05 2.441-.964 3.634.022.319.048.327.301.582l6.628-.111-.553.8c-1.18 1.603-2.985 2.602-3.845 4.489-1.275 2.792-1.677 5.548-2.009 8.648l.251.29-.22.163.132.22c1.08-.22 2.2-1.217 3.088-1.762.425 2.851-1.856 4.868-3.555 6.725-.852.932-1.672 1.935-2.603 2.799l-.441.335c-1.047.753-1.945 1.679-2.99 2.445-1.935 1.416-4.02 2.464-6.206 3.565 2.532.14 4.639-.222 6.981-.665 2.713-.514 5.412-1.153 7.917-2.062 1.498-.544 2.796-1.278 4.358-1.759.156-.206.118-.224.411-.293.607-.145 1.181-.557 1.685-.851 1.794-1.051 3.846-2.363 5.137-3.897.604-.717 1.028-1.613 1.369-2.476.444-1.119.774-2.421 1.447-3.413l.026.02c-.008.263-.019.498-.087.743l.095.105c.242.342.221 1.115.308 1.509.259 1.149.537 2.334.98 3.47 1.179-.736 2.043-1.644 2.981-2.599 1.85-1.886 3.468-3.854 3.634-6.667.118-1.986-.888-4.214.395-5.869.457-.589.93-.827 1.663-1.147.591.023.893.167 1.422.493.788 1.308 1.33 2.665 1.915 4.021.312.724.559 1.628 1.184 2.23 1.118-.453 2.932-5.186 3.253-6.455.371-1.464.573-3.297.13-4.908-.535-1.944-3.258-5.533-2.616-7.271.139-.376.622-.699 1.003-.88.359-.169.667-.23 1.115-.071.534.19 1.092.677 1.545 1.015.937.701 1.644 1.613 2.546 2.338.204.164.33.343.485.543.275-.071.319-.054.406-.308.183-.535-.21-1.334-.323-1.927-.517-2.707-1.126-5.231-2.063-7.922-.411-1.182-1.079-2.455-1.399-3.621-.898.071-2.918 1.872-3.339 2.558-.277.452.012 1.024.238 1.545 1.104 2.547 3.46 4.514 4.674 7.024-1.152-1.251-2.528-2.528-3.542-3.85-.996-1.298-1.709-2.78-2.344-4.194l-3.579 2.777c-.36.284-.033.437-.569.595l.025.1.327-.037c.757 1.257 1.184 2.901 1.789 4.237 1.795 3.962 5.052 8.58 3.362 12.474-.067.156-.076.155-.165.27-.18-1.205.4-2.403.286-3.63-.165-1.759-1.202-3.633-2.073-5.311l-2.331-4.604a18.8 18.8 0 0 1-1.404-3.505c-.812.602-2.098 1.323-2.64 2.123-.552.816-.568 1.976-.579 2.98l.087 4.631c.026.874.135 1.824-.039 2.648l-.027.112c.044.245.083.351-.014.564-.07-.199-.012-.374.014-.564-.391-.71-.389-1.778-.47-2.516l-.547-5.723-.197-.042c-.239.097-.76.231-.937.379-.41.341-2.415 6.817-2.874 7.921-2.343 5.633-5.347 11.245-9.278 15.941-.349.417-.888 1.329-1.492 1.341.005-.265 1.578-2.403 1.82-2.587.193-.147.158-.081.247-.271.385-.828.97-1.61 1.431-2.407l2.01-3.79c1.537-2.947 2.69-6.216 3.864-9.34.669-1.783 2.182-4.535 1.668-6.589l-.345.063c.157-.188.235-.254.258-.51-.455-.955-1.191-1.806-1.866-2.674-.911-1.171-1.8-2.337-2.8-3.459-.24.122-.153.059-.312.198-.703.617-1.639.982-2.468 1.463a27 27 0 0 0-3.58 2.481c-.553.452-1.922 2.233-2.528 2.318.244-1.005 1.025-1.67 1.764-2.36 1.991-1.86 4.183-3.181 6.671-4.509l-1.641-2.859c-.131-.261-.221-.238-.494-.372l-.152.04zm-3.801 35.621c.059.128.093.266.136.396-1.219 1.199-2.512 2.882-4.136 3.626zm13.248-8.252c-.971-.935-1.909-4.047-1.989-5.241a9.6 9.6 0 0 1 .121-2.166c.33 1.455.47 2.984.904 4.426.254.84.961 2.201.964 2.981m-13.735-6.041c2.405-1.912 4.895-3.832 7.027-5.991l4.081-4.533.202.031.047.352-.156.09c-.206.131-.286.298-.399.498-.523.927-1.414 1.734-2.135 2.53L93.82 226.606c.021-.995 1.821-2.535 2.35-3.413.08-.131.045-.082.198-.195M131.928 192.54c-.601-.891-.924-1.871-1.379-2.805-1.51-3.1-2.851-6.557-2.928-9.756-.033-1.379.231-2.793.358-4.142l-7.666 5.438c.435 2.778 2.045 6.341 4.034 8.796 1.653 2.041 3.678 3.796 5.737 5.517l2.063 1.626c.502.414.95.915 1.504 1.265l.089-.084c.134-.109.228-.124.412-.15.53-.673.317-1.946.204-2.836l-1.275-9.758c-.368-2.713-.807-5.484-.725-8.147.066-2.129.753-4.048.942-6.139l-2.276 2.392c-.679.713-1.347 1.183-1.416 2.234-.082 1.246-.323 2.455-.358 3.716-.057 1.999.271 4.337.786 6.387l1.388 4.629c.157.508.513 1.325.505 1.819zM166.867 171.265c-.704-1.139-1.189-2.368-1.798-3.54a45 45 0 0 0-4.267-6.74c-.698-.91-1.453-1.824-2.281-2.653-.542-.543-1.198-1.029-1.668-1.613-.379-.472-1.936-1.059-2.55-1.352-2.086-.997-3.953-2.243-5.936-3.413 1.98 2.904 3.701 5.751 4.887 8.89 2.162 5.724 1.927 11.925.722 17.23-.256 1.131-.711 2.258-.774 3.443.617.872 1.729 1.492 2.67 2.056 2.425 1.453 4.568 2.413 7.222 3.263l12.52 3.536c.122-2.64 2.154-4.623 3.497-6.725 1.165-1.822 2.257-3.773 2.828-5.89 1.608-5.963-.155-13.065-4.315-18.989-3.216-1.172-8.518-1.84-11.641-1.309 5.785 5.751 8.992 13.719 9.383 20.652.016.29-.006.594-.107.85-.163-.388-.175-.957-.285-1.38-.308-1.188-.632-2.38-1.056-3.559-1.589-4.419-3.99-8.37-6.95-12.368-1.04-1.406-2.047-2.87-3.257-4.179l-3.529-.303c.077.373.501.829.744 1.176l1.838 2.739c1.478 2.367 2.513 4.882 3.349 7.385.29.866.677 1.809.748 2.678l.007.113zM213.778 103.186l-.196.136c-.522.34-1.354.407-1.981.603l-6.635 2.106c1.066 1.017 2.128 1.76 3.337 2.616 1.58-.315 3.4-.615 4.836-1.191 2.033-.816 4.033-1.89 5.971-2.849.654-.323 1.509-.925 2.257-1.042-1.977 1.725-4.659 2.687-6.923 4.075 1.678.193 3.635-.273 5.268-.43 4.5-.431 9.067-.705 13.424-1.518l3.557-.847c.463-.114 1.081-.354 1.579-.352-.547.503-2.129.773-2.934 1.04-3.493 1.16-7.075 2.107-10.823 2.77l-10.149 1.706c-1.1.217-2.391.344-3.35.807l.028.324.331.261c.371.272 1.284.903 1.692 1.102.254.123 1.253.108 1.545.124 3.925.22 7.614-.496 11.46-.467l.129.002c-.779.486-1.956.607-2.913.821-2.731.611-5.498 1.023-8.312 1.431-.037.005-.094-.012-.113.016-.133.203-.112.929-.187 1.209-.157.582-.456 1.112-.748 1.628-2.163 3.827-5.453 6.892-9.074 9.576 7.475-.054 13.684-3.263 19.428-6.41l5.662-3.003c1.455-.793 3.025-1.385 4.509-2.131 3.498-1.759 6.526-4.046 8.95-6.861.512-.595.996-1.19 1.375-1.873.081-.146.162-.241.269-.365.322-.377.452-.929.622-1.394.84-2.304.81-4.986.178-7.583l-.675.07-.324.047c-.622.12-1.194.633-1.684.963-1.559 1.052-4.133 2.203-6.273 2.31-1.484.074-3.381-.441-4.876-.91a60 60 0 0 1-8.02-3.154c-1.931-.924-3.775-1.984-5.796-2.669-2.668-.902-5.46-1.165-8.126-1.28-.513.797-1.001 1.633-1.587 2.384-.292.374-1.055 1.008-1.109 1.465l6.307.563c2.944.355 6.437 1.235 9.336 2.226l.281.098c-.501.121-1.29-.03-1.839-.09l-4.06-.383-5.645-.107c-2.414.017-5.372.14-7.473.899-1.721.621-3.347 1.892-4.452 3.17.25.507.251.209.621.496.212.164.108.265.5.5.47.282 1.305.79 1.846.879.694.114 1.746-.213 2.388-.334l5.843-1.027c.769-.101 1.662-.275 2.467-.188zM205.593 154.872l-.547-.228c-2.331-.592-4.649-1.548-6.986-2.195-5.479-1.515-10.974-2.616-16.383-4.591-1.231-.45-2.401-.8-3.579-1.437l-.244-.133c-.244 2.746-1.216 5.899.241 8.784.245.485.631.924 1.171 1.176 3.388 1.582 7.12 2.355 10.665 2.957 1.608.273 3.25.296 4.847.395l7.015.476c1.72.099 3.474.112 5.205.327 2.105.26 4.276.65 6.383 1.125 3.256.734 7.284 2.196 10.444 1.858.927-.099 1.493-.455 1.933-1.13-.193-2.685-1.809-5.974-3.138-8.585-1.89-3.713-4.187-7.585-7.086-10.878-4.039-4.588-9.76-8.599-15.4-11.231-1.188-.555-2.979-1.311-4.242-1.43-1.79-.169-3.942.554-5.544.977 2.419.838 4.475 1.663 6.734 2.963-1.36-.424-2.768-.93-4.142-1.228-1.442-.314-2.897-.389-4.339-.614-1.279-.2-2.514.08-3.731.184l-7.986.831 18.584 3.42 3.04.74c-7.646.048-15.415-1.091-23.183-2.292l1.101 2.029c2.894.855 6.345 1.109 9.255 1.45 7.472.875 14.801 1.87 22.082 4.915-.528-.025-1.22-.275-1.759-.405a44 44 0 0 0-3.458-.695l-13.209-1.616 5.555 2.47c8.582 3.754 16.862 7.956 23.941 14.12l-7.022-4.218c-8.598-4.788-17.959-9.251-27.253-12.183-2.479-.781-5.048-1.386-7.551-1.979.564 1.974.719 3.561.705 5.486.351.34 2.025.716 2.577.903l11.714 3.838 7.706 2.857c1.619.643 3.628 1.43 5.089 2.393l.247.168z"/><path fill="#49376c" d="m156.198 203.034-.123-.248c-.408-.848-.533-1.804-.845-2.677-.969-2.714-2.695-6.131-4.78-8.472l-.17-.195-.104-.117c-.574.777-1.385 1.621-1.728 2.516l-.214.087 1.342 3.772c1.188 3.93 1.587 7.73 1.622 11.592.008.949.191 2.252-.115 3.1-.517-1.197-.502-3.066-.714-4.322-.469-2.769-1.199-5.604-2.091-8.362-.463-1.434-.879-2.852-1.681-4.227l-.201.067c-.67.371-3.426 3.699-3.343 4.291l.031.174c.452 3.324 1.712 6.723 3.261 9.955.594 1.239 1.446 2.581 1.834 3.842l.03.103c-1.147-1.471-1.98-3.066-2.84-4.642-1.625-2.981-2.821-5.537-3.608-8.655l-3.402 3.336c-.137-.024-.483-.045-.595-.102-.633-.324-.915-.916-1.393-1.31-2.319-1.923-4.926-3.996-7.414-5.715.516 1.774 1.767 3.402 2.803 5.063 1.639 2.626 3.372 5.062 5.456 7.484 4.061 4.72 8.545 8.632 10.628 14.289.845 2.294 1.155 4.558 1.426 6.851l1.028-.817c3.999-3.375 6.505-7.141 7.766-12.188.39-1.56.588-3.178 1.07-4.706 1.241-3.944 2.741-7.571 2.329-12.025-.48-5.189-3.391-12.178-7.928-16.323-.398 1.225-.794 2.468-1.361 3.616-.251.506-1.166 1.666-1.191 2.159-.002.036 1.91 2.74 2.128 3.157.509.974.851 1.906 1.236 2.896.824 2.118 1.852 4.617 1.85 6.753zM285.301 122.966c-1.145.129-2.193.425-3.318.583-2.733.384-5.235.298-7.617 1.488-1.174.587-2.142 1.85-3.383 2.255-.554.181-1.326.161-1.938.211-2.034.168-3.767.688-5.208 1.826-1.259.993-6.067 7.591-7.484 6.967-.238-.908.406-1.869.742-2.625 1.711-3.852 2.255-7.468.101-11.954l-.104.072a2 2 0 0 1-.43.197l-.066.121c-.085.148-.181.264-.289.397a4 4 0 0 0-.478.701c-.315.591-.939 1.116-1.407 1.605-1.294 1.355-2.737 2.579-4.24 3.748l-.278-.057c-.022-.303.127-.425.162-.702.031-.24.135-.354.278-.535-.158-.424-.156-.432-.006-.804-.774-.027-2.662 1.746-3.158 2.255-1.225 1.26-2.537 2.569-3.517 4.007l-2.438 3.964c-.117.167-.061.072-.132.281l-3.349 6.74c-1.72-4.192-3.028-8.271-4.172-12.518-.286-1.063-.735-2.232-.871-3.284-.991 1.013-2.138 2.037-2.895 3.217-1.594 2.481-1.635 6.418-1.48 9.454l-.109-.135c-.564-.688-1.396-1.673-2.175-2.148a18.4 18.4 0 0 0 .905 6.457c.664 2.006 1.65 4.009 2.382 6.014.482 1.319 1.028 2.651 1.195 3.984.2 1.599.099 3.033-.41 4.458-.253.705-.783 1.301-1.016 1.947-.194.539-.097 1.212-.001 1.807l.109.086 1.091-.488c-.022.281.036.257-.208.435-.696.508-1.261 1.248-1.843 1.861-.138.146-.455.6-.636.672-1.071.424-3.012.198-4.254.013a12.6 12.6 0 0 1-3.03-.822c.015 4.582-1.652 9.455-4.4 12.904-1.646-1.62-3.284-3.335-5.055-4.845-1.904-1.623-4.085-3.181-6.116-4.68-1.583-1.168-3.665-2.225-5.085-3.486l1.572-1.152c.881-.698 3.292-.698 4.558-.57l-.126-.246c-1.212-.377-2.73-.342-3.966-.475-1.992-.216-4.246-.671-6.184-.627l-.807 1.153c-1.543-.284-2.998-.777-4.524-1.15l-6.265-1.535c-1.386-.395-3.215-1.276-4.543-1.391.587 1.266 1.468 2.992 2.9 3.726l13.581 8.108.222.615c-.856 1.083-1.859 1.805-2.969 2.658-.628.483-1.425.995-1.792 1.684-.398.75-.324 1.694-.326 2.564-.005 1.959-.116 3.691-1.839 4.819-.262.171-.423.379-.63.597-1.321 1.386-4.684 1.654-5.576 3.243l.166.225c1.559.232 3.232.071 4.654-.23.668-.142 1.771-.626 2.448-.546-.49 2.992-.525 6.816-2.309 9.248-1.568 2.137-2.962 3.35-6.13 3.606-1.748.142-3.819-.147-5.586-.884-.77-.32-1.796-.99-2.579-1.013.864 1.45 2.485 2.658 3.664 3.952-1.703.869-3.488 1.197-5.262 1.884-2.674 1.036-5.811 3.307-7.24 5.574.343.519.797.806 1.422 1.015 3.613 1.207 7.611.042 10.823-.62l-10.286 11.236c-.366.384-.517.921-.874 1.275-.206.205-.281.593-.476.85l.194.196c.728.109 1.074-.164 1.608-.482-.201 1.414-1.187 3.716-2.206 4.728-.171.169-.183.344-.232.578-.202.136-.257.13-.33.361-.331 1.055-1.11 2.213-1.62 3.218-.223.44-.518.821-.369 1.373.342.193.465.35.837.289.84-.138 1.88-1.024 2.572-1.447 2.519-1.542 5.366-2.959 8.659-3.244-1.043 1.894-2.488 3.525-3.534 5.419-1.565 2.834-2.313 6.207-2.795 9.458-.097.653-.272 1.096-.097 1.811.064.258.017.342-.021.579-.247 1.511 1.015 4.619 2.143 6.046.41.518.882.977 1.495 1.29.414-.239.479-1.233.648-1.675.432-1.126 1.738-2.828 3.159-2.948l.759.529c.29 1.707-.391 3.522-.836 5.056-.111.383-.636 1.781-.481 2.117.031.067.115.11.172.165 1.422-.151 2.717-1.707 3.86-2.339-.252 1.127-.556 2.264-.52 3.468.07 2.424 1.521 5.39 3.061 7.607.737 1.061 1.507 2.116 2.828 2.636.414.163.799.156 1.185.081.781-1.468 1.562-2.911 1.997-4.542 1.946 6.381 5.612 12.072 11.972 16.334 2.224 1.49 4.49 2.521 7.004 3.278.592.178 1.407.497 1.988.421l.247-.044c-.126-.618-1.442-1.726-1.96-2.289-2.549-2.777-4.689-6.254-5.874-9.524-1.01-2.788-1.544-5.604-1.593-8.368l.201-6.371c-.026-2.115-.328-4.333-.695-6.481.306.129.423.225.672.432l.254.061.094.142c.181.274.289.48.584.671.827.533 1.327 2.079 1.573 2.874.426 1.373.602 2.595.572 3.937l.154.145.039-.112c.125-.346.263-.459.486-.736.957-1.193 1.433-3.171 1.818-4.666.843-3.279 2.084-7.676.683-11.29-1.075-2.775-4.587-5.595-2.949-8.39.226-.386.727-.759 1.26-.791.476-.03 1.432.087 1.874.405.133.095.238.222.348.336.189.195.437.3.646.478 1.279 1.096 2.276 2.464 2.345 3.919l-.017 1.465 1.132-1.314c1.305-1.454 1.572-3.956 1.108-5.983-.321-1.396-1.284-2.627-1.827-3.98 1.115.137 2.135.208 3.22.157l.161-.16c-.207-.283-.323-.494-.665-.662l-.017-.295-.21-.136c-.281-.189-.314-.329-.498-.584-.481-.666-1.288-1.306-1.855-1.936-.993-1.105-1.88-2.323-2.76-3.491-1.609-2.137-3.501-4.504-3.453-6.942l.306-.108c.084-.321.057-.341.391-.471 2.025-.788 5.715 1.154 7.914 1.823-.935-1.443-1.996-2.828-3.048-4.218-1.194-1.579-2.479-3.292-4.126-4.556a70 70 0 0 0-4.633-3.234c-.139-.09-.113-.035-.099-.156 1.307-.023 3.313.067 4.338-.505-.219-.382-.403-.492-.835-.683-2.791-1.233-5.617-1.407-7.37-4.261-2.433-3.961-3.134-8.797-3.069-12.848.023-1.485.09-3.019.518-4.389l.978-2.719c.122-.346.379-.487.669-.71.32-.246.495-.553.722-.867.153-.211.332-.242.56-.371.369-.209.573-.509.769-.851.509.28.529.362 1.069.277l.007-.359 1.399.644c1.285.623 2.345 1.629 3.616 2.26.909.452 1.889 1.455 2.66 2.11l6.377 5.828c.97.933 2.107 1.949 2.966 2.947l2.463 2.636 6.547 7.646c7.113 8.75 13.468 18.523 17.791 28.283 2.345 5.294 4.168 10.715 6.104 16.071l2.726 7.529c.072.174.079.316.258.426l3.574-5.895c.823-1.473 1.497-3.048 2.085-4.638.225-.608.59-1.358.664-2.015.031-.27-.154-.611-.265-.88-.606-1.466-1.427-2.867-2.192-4.295l-4.629-8.326c-4.505-7.898-9.09-16-14.682-23.482l-7.44-9.442-5.943-6.746c-1.75-2.115-2.355-5.831-2.088-8.093l.175-1.171c.303-1.914 7.084-5.829 9.14-6.751 2.428-1.087 5.299-1.371 8.283-.405 2.137.693 4.315 2.095 5.528 3.935.52.788.617 1.785.776 2.618.688-.889 1.125-1.963 1.85-2.797 1.28.953 2.56 1.976 3.951 2.777.094-.281-.062-.303-.022-.488.052-.24.447-.406.527-.783.324-1.529-.644-3.389-.967-5.007.934 1.479 1.723 2.659 3.204 3.822.428.336 1.066.659 1.392 1.05.328.043.383.01.671.208.507.35 1.274.561 1.85.739 2.473.765 4.88.986 7.275.759 2.972-.281 6.193-1.1 8.735-2.241-2.065-.901-6.328-2.584-7.236-4.588-.138-.306-.257-.721-.096-.973.502-.788 1.355-1.134 2.401-1.232 2.279-.213 5.568.855 7.953 1.303 3.568.672 7.374 1.313 10.872 1.264-1.581-.723-2.887-1.29-4.241-2.403l-.004-.265c4.934.356 10.163-.393 13.259-3.51a.9.9 0 0 0 .24-.417l-.051-.307c-1.757-.817-3.665-.843-5.464-1.839-1.196-.661-1.737-1.208-2.577-2.246.124-.384.241-.798.451-1.14.944-1.54 6.002-.882 8.02-1.109 3.94-.444 7.858-1.974 10.814-3.979.525-.356 1.29-.791 1.609-1.319.123-.203.027-.111.262-.29l.159-.111-.014-.283c-1.581.126-3.428-.685-4.942-1.375.566-.309 1.395-.4 2.068-.55l3.925-.942c2.177-.573 4.307-1.271 6.534-1.743 8.078-1.709 16.711-1.293 25.466.696l-.942-.746c-6.452-5.025-16.298-9.325-24.109-10.297-2.962-.369-5.793-.162-8.695-.198l-.148-.243c.925-1.314 2.685-2.317 3.973-3.356-1.981-.887-4.497-1.141-6.55-1.358-3.995-.423-7.369-.364-10.657 1.186-1.275.601-2.444 1.337-3.767 1.875-.931.379-1.989.891-3.047 1.018.043-.458.455-.773.753-1.093.817-.875 1.861-1.683 2.61-2.581.2-.238.49-.747.399-1.066-2.857-.299-5.32.742-7.671 1.625-.95.357-1.972.821-3.037.939l-.119.01c.322-.623.938-1.188 1.384-1.743 1.088-1.355 1.92-2.71 2.374-4.401.185-.691.48-1.125.419-1.899zm-34.869 116.371c-.722-2.122-1.339-4.171-2.237-6.279-1.753-4.12-4.018-8.157-6.211-12.167-2.482-4.538-5.055-9.147-8.013-13.525-4.416-6.535-9.657-12.618-15.2-18.523-4.856-5.172-10.021-10.284-15.521-14.928-4.905-4.141-10.254-7.783-15.397-11.642 1.407.863 2.906 1.515 4.341 2.33 3.109 1.766 6.068 3.692 8.984 5.741.774.544 1.633 1.033 2.372 1.603 4.49 3.457 8.472 7.339 12.376 11.311 12.617 12.835 23.605 27.396 30.534 42.764.687 1.524 1.486 3.047 2.045 4.592.76 2.101 1.253 4.271 1.673 6.386.14.704.426 1.699.254 2.337m-17.144-98.308c.579 1.454.619 7.254-.023 8.408l-.066.092c-.362-1.393-.082-2.901-.067-4.259.013-1.25-.224-3.125.156-4.241m-58.355 96.652-.236-.412c.19-.259.401-.509.46-.836.066-.371.197-.709.32-1.057l.37-.087c-.195-.887.69-1.814 1.099-2.535 1.304-2.299 2.619-4.74 4.327-6.781 1.318-1.573 3.285-3.098 4.235-4.883.841-1.579 1.299-3.43 1.787-5.166l1.85-6.508c.732-2.5 1.893-4.83 2.082-7.522-1.484 1.628-2.973 3.264-4.636 4.745-.402.357-.889.618-1.3.962-2.614 2.181-5.162 4.478-7.475 6.92-.803.848-1.729 1.71-2.378 2.662l-4.205 5.234c.301-1.548 1.52-3.005 2.436-4.238.389-.524.668-1.114 1.069-1.632 1.472-1.905 3.301-3.813 5.053-5.506l6.334-5.471c2.36-2.026 5.344-4.321 5.548-7.658l-.876 1.417c-2.047 2.846-4.545 5.032-8.73 5.372-1.104.089-2.328.113-3.485-.179.88-.203 1.79-.197 2.685-.347 1.645-.276 3.031-.785 4.492-1.377 1.632-.662 3.741-2.689 4.316-4.226.29-.777.677-1.495.921-2.297.664-2.175.948-4.476 1.254-6.764 1.548 6.112 2.348 12.553 8.699 17.156l2.768 1.735c-1.364-.467-4.137-1.89-5.406-1.659l-.207.234c.661 1.426 1.073 2.83 1.636 4.263 1.432 3.646 3.253 7.764 6.239 10.858 1.6 1.657 3.392 2.953 5.303 4.287-1.026-.383-1.931-.681-2.86-1.254l-.214-.097c-.364-.172-1.204-.775-1.447-1.076-.748-.263-.389-.373-.86-.725-.208-.154-.398-.129-.561-.346a3 3 0 0 0-.632-.639c-.867-.68-1.715-1.827-2.329-2.685-3.402-4.754-4.213-9.916-6.04-14.953-.491-1.355-1.212-2.686-1.801-4.024l-1.641-4.21-.552 6.164-.672 4.314c-.202.995-.997 3.246-.653 4.259.238.701.99 1.579 1.36 2.283 1.027 1.961 1.864 4.026 2.574 6.046 1.604 4.561 2.205 9.211 3.876 13.781.54 1.477 1.265 2.916 1.971 4.36.364.745.837 1.53 1.002 2.3-.833-.92-1.447-2.122-2.051-3.151-.797-1.358-1.646-2.739-2.28-4.141-1.816-4.018-2.813-8.117-4.001-12.197-.417-1.431-1.799-5.69-3.191-6.632l-.161.259c-.56.7-.671 1.825-.883 2.706-.468 1.95-.921 3.92-1.131 5.95-.237 2.3-.197 4.725-.288 7.061-.032.805.023 1.622.077 2.442.01.162-.013.659.056.796.296.599 1.537 1.71 2.049 2.293l5.612 6.441c-.554-.256-1.128-.765-1.618-1.142-2.445-1.879-4.795-4.277-6.435-6.706-.166 2.104-.001 4.283.046 6.424.06 2.734.053 5.554.447 8.328.538 3.788 1.653 7.404 3.234 11.124.541 1.274 1.258 3.159 2.191 4.301 1.081 1.324 2.124 3.22 2.944 4.663l-.157-.085c-.418-.286-.756-.909-1.023-1.307l-2.552-4.105c-2.785-4.606-4.848-9.993-5.803-14.859-1.215-6.191-1.064-12.472-1.062-18.525.001-.998-.026-2.015.081-2.992.112-1.02.613-2.315.374-3.361l-.389-.089-3.413 3.72c-.478.511-1.232 1.121-1.524 1.737-.515 1.087-1.419 2.119-2.099 3.121l-3.921 5.724c-.164.677-.622 1.166-1.025 1.713l-.341.041c.553-.615.587-1.383 1.366-1.754zm110.07-83.266c-.665.356-2.05.444-2.87.597-5.201.97-10.453 1.165-15.981 1.032-3.123-.076-6.469-.207-9.641-.981-.464-.113-.666-.093-1.078.05-2.417.842-4.614 2.179-6.897 3.225l-13.375 6.221 7.412.085c2.302-.026 4.967-.445 7.307-.015.768.141 1.673.603 2.409.919 2.166.933 4.184 2.01 6.296 3.061 2.234 1.112 4.542 2.118 6.732 3.317-5.159-1.066-9.875-3.982-14.912-5.502-1.097-.331-2.247-.398-3.345-.49l-7.332-.302c-1.704-.088-3.493-.353-5.172-.334-.846.009-1.72.175-2.496.373-2.395.615-4.191 2.007-6.286 3.02.814-.846 1.722-1.388 2.693-2.072.444-.312.674-.706 1.271-.803.124-.427.783-.725 1.16-.975l3.042-1.913c.537-.318.974-.709 1.591-.93l.106-.036c.921-1.594.92-3.739 1.418-5.537.441-1.588 1.261-3.236 1.474-4.876l.027-.233-.165.248c-.583 1.225-2.017 2.391-3.121 3.235l.041-.143c.294-.713 2.489-3.139 3.245-3.34.067-.533.207-.97.608-1.333.519-.47.771-1.646 1.143-2.286l4.783-8.727 3.56-5.273 2.254-2.716c.022.507-.412.936-.68 1.335-.621.923-1.181 1.933-1.851 2.801-.498.644-.819 1.521-1.228 2.231-1.091 1.895-2.64 4.035-3.158 6.198 2.043-1.824 3.701-4.287 6.128-5.717-1.599 2.112-3.698 3.845-5.329 5.93-3.797 4.852-5.398 10.938-6.901 16.897l7.152-3.247c1.133-.523 2.738-1.053 3.633-1.818.644-.55.899-2.029 1.313-2.837 1.028-2.007 2.264-3.833 3.597-5.649a27.4 27.4 0 0 1 4.352-4.644c3.978-3.361 8.631-6.087 13.189-8.83.829-.499 2.232-1.669 3.224-1.789l-1.355 1.088-4.076 2.965c-6.397 4.421-12.587 8.747-16.123 15.524-.413.792-1.105 1.791-1.251 2.682l.196.129c.836-.178 1.403-.571 2.111-.927l3.384-1.623c4.7-2.185 9.423-4.482 14.401-6.249l-.137-.326 2.466-3.132c.36-.445.68-1.007 1.15-1.357-.091 1.284-2.492 3.991-3.479 4.815l.186-.028c1.422-.222 2.683-.86 4.004-1.284l5.972-1.714c.837-.242 1.698-.631 2.6-.705l-.008-.115c-.023-1.444 1.721-2.474 2.454-3.555l.216-.02c-.903 1.038-1.88 2.08-2.011 3.524l.193.138c5.023-.852 10.152-1.57 15.36-1.909l4.43-.107c1.757-.092 4.286-.453 6.075-.033-.81.359-2.415.118-3.402.173l-6.468.484c-6.343.488-12.27 1.81-18.168 3.32-1.259.322-3.588.713-4.507 1.455l5.418 1.482c.975.242 1.983.393 2.938.753l.124.048-.234.025c-.568.046-1.312-.14-1.905-.241a48 48 0 0 1-4.745-1.061c-.787-.219-1.737-.583-2.514-.597-.94-.017-1.834.424-2.628.728l-4.45 1.832-9.345 4.126c-1.073.51-2.27.941-3.249 1.561 3.264 1.032 6.23 1.231 9.472 1.369 4.013.17 8.041.083 11.936-.242l3.747-.356c.561-.051 1.293-.189 1.879-.07zm-31.074 9.153c1.152-.543 2.507-.831 3.797-1.143 4.89-1.184 9.22-1.267 14.594.379 1.66.508 3.612 1.043 5.086 2.032-1.004-.068-2.455-.67-3.503-.965-1.919-.54-3.909-1.025-5.84-1.243-2.987-.339-6.297-.27-9.099.181-1.581.255-3.256.721-4.899.758zm-70.728 81.912.109.456c-.171.126-.215.148-.457.191l-.14-.383zm48.341-84.276.343-.205.07.15-1.116 1.198-.39.167-.109-.088c.337-.473.755-.839 1.202-1.222m-48.833 84.946.379.426c-.13.056-.221.111-.377.113l-.239-.267zm-.152.705.338.365c-.125.236-.035.152-.247.27.084.828-.843 2.017-1.353 2.655l-.232-.035c.402-.68.644-1.421.93-2.157l.345-.048-.258-.388c.125-.371.145-.44.477-.662"/><path fill="#49376c" d="M228.554 158.52c.489-.988.684-2.056.834-3.171a29 29 0 0 0-4.913-1.72l3.456 5.77.224.086zM296.128 161.858l.052.309.263-.155z"/></svg>