<svg width="40" height="40" viewBox="0 0 40 40" fill="none" xmlns="http://www.w3.org/2000/svg">
<path d="M20 23.9463L39.76 31.8926L39.92 31.9463H40L20 40L0 31.9463H0.133333L0.24 31.8926L20 23.9463ZM20 26.7919L7.17333 31.9463L20 37.1007L32.8267 31.9463L20 26.7919ZM19.3333 0V22.5503L19.36 22.7114V22.7651L13.3333 25.1812V14.5235C13.3334 14.046 13.2153 13.576 12.9896 13.156C12.7639 12.7361 12.4377 12.3794 12.0406 12.1182C11.6435 11.857 11.1881 11.6996 10.7154 11.6602C10.2427 11.6209 9.76766 11.7007 9.33333 11.8926C7.06667 12.8859 5.52 15.0872 5.36 17.557L5.33333 18.0403V28.4027L0 30.5503V7.78524L19.3333 0ZM20.6667 0L40 7.78524V30.5503L20.64 22.7651L20.6667 22.6577V0ZM26 10.4698V18.5235L34 21.8792V13.8255L26 10.4698ZM10.6667 17.8524C11.4133 17.8524 12 18.443 12 19.1946C12 19.9463 11.4133 20.5369 10.6667 20.5369C9.92 20.5369 9.33333 19.9463 9.33333 19.1946C9.33333 18.443 9.92 17.8524 10.6667 17.8524Z" fill="#574A48"/>
</svg>
