<svg width="24" height="31" viewBox="0 0 24 31" fill="none" xmlns="http://www.w3.org/2000/svg">
<path d="M13.6975 0.731134C13.2287 0.262965 12.5933 0 11.9308 0C11.2683 0 10.6329 0.262965 10.1641 0.731134L0.732468 10.1578C0.263477 10.6268 -6.98851e-09 11.2629 0 11.9261C6.98851e-09 12.5894 0.263477 13.2255 0.732468 13.6945C1.20146 14.1635 1.83755 14.4269 2.5008 14.4269C3.16405 14.4269 3.80014 14.1635 4.26913 13.6945L9.4308 8.53447V27.7595C9.4308 28.4225 9.69419 29.0584 10.163 29.5272C10.6319 29.9961 11.2678 30.2595 11.9308 30.2595C12.5938 30.2595 13.2297 29.9961 13.6986 29.5272C14.1674 29.0584 14.4308 28.4225 14.4308 27.7595V8.53447L19.5908 13.6945C19.823 13.9267 20.0987 14.1109 20.4021 14.2366C20.7055 14.3622 21.0307 14.4269 21.3591 14.4269C21.6875 14.4269 22.0127 14.3622 22.3161 14.2366C22.6196 14.1109 22.8952 13.9267 23.1275 13.6945C23.3597 13.4622 23.5439 13.1866 23.6696 12.8831C23.7952 12.5797 23.8599 12.2545 23.8599 11.9261C23.8599 11.5977 23.7952 11.2725 23.6696 10.9691C23.5439 10.6657 23.3597 10.39 23.1275 10.1578L13.6975 0.731134Z" fill="#FFFEFA"/>
</svg>
