<svg width="24" height="24" viewBox="0 0 24 24" fill="none" xmlns="http://www.w3.org/2000/svg">
<g clip-path="url(#clip0_1992_5944)">
<rect width="24" height="24" rx="8" fill="#211F29"/>
<path d="M15.9326 5.30066C16.7888 5.29475 17.6451 5.33866 18.4961 5.43249V8.40222H16.7471C15.3611 8.40222 15.0967 9.06241 15.0967 10.0194V12.1425H18.3975L17.9678 15.4423H15.0967V23.9999H11.665V15.4755H8.80469V12.1757H11.665V9.70007C11.6059 9.11911 11.6746 8.53199 11.8662 7.98035C12.0578 7.42875 12.3679 6.92587 12.7744 6.50671C13.181 6.08754 13.6742 5.76194 14.2197 5.55359C14.7653 5.34529 15.3501 5.2592 15.9326 5.30066ZM21 23.9999H20.7266C20.8191 23.9984 20.9106 23.9851 21 23.9628V23.9999Z" fill="#FFFEFA"/>
</g>
<defs>
<clipPath id="clip0_1992_5944">
<rect width="24" height="24" rx="8" fill="white"/>
</clipPath>
</defs>
</svg>
