<svg width="16" height="16" viewBox="0 0 16 16" fill="none" xmlns="http://www.w3.org/2000/svg">
<path d="M11 0C13.7614 0 16 2.23858 16 5V11C16 13.7614 13.7614 16 11 16H10.5449V10.0537H12.6191L12.9277 7.76172H10.5449V6.28613C10.545 5.62151 10.7355 5.1631 11.7363 5.16309H13V3.09863C12.3854 3.03345 11.7667 3.00275 11.1484 3.00684C10.7279 2.97807 10.305 3.03805 9.91113 3.18262C9.51711 3.32737 9.15989 3.55352 8.86621 3.84473C8.57246 4.13601 8.34838 4.48677 8.20996 4.87012C8.07172 5.25327 8.02266 5.66195 8.06543 6.06543V7.78418H6V10.0771H8.06543V16H5C2.23858 16 0 13.7614 0 11V5C0 2.23858 2.23858 0 5 0H11Z" fill="#FFFEFA"/>
</svg>
