<svg width="40" height="31" viewBox="0 0 40 31" fill="none" xmlns="http://www.w3.org/2000/svg">
<path d="M33.6784 10.6243C33.8054 9.27849 33.6512 7.92086 33.2258 6.63836C32.8003 5.35586 32.113 4.17677 31.2077 3.17661C30.3024 2.17645 29.1993 1.37727 27.9688 0.830256C26.7383 0.283241 25.4077 0.000452093 24.0622 1.08856e-07C22.0956 -0.000295938 20.1758 0.603262 18.5602 1.7298C16.9446 2.85635 15.7103 4.45206 15.0226 6.30314C14.5599 5.78633 13.9945 5.37277 13.3628 5.08917C12.7312 4.80557 12.0473 4.65824 11.3555 4.65668C10.0352 4.65668 8.76896 5.18362 7.83537 6.12159C6.90179 7.05955 6.37731 8.3317 6.37731 9.65818C6.37731 9.98437 6.41441 10.3028 6.4747 10.6103C2.80601 11.2161 0 14.3941 0 18.2493C0 20.309 0.814415 22.2844 2.26408 23.7409C3.71375 25.1973 5.67992 26.0156 7.73007 26.0156H11.3044C11.0244 25.4378 10.9315 24.7865 11.0388 24.153C11.1461 23.5194 11.4482 22.9356 11.9028 22.4835L18.5908 15.7578C18.8768 15.4684 19.2172 15.2391 19.5922 15.0831C19.9673 14.9271 20.3694 14.8476 20.7753 14.8492C21.6102 14.8492 22.3832 15.1754 22.9645 15.7609L29.6479 22.4866C30.101 22.939 30.4019 23.5225 30.5083 24.1554C30.6148 24.7882 30.5215 25.4387 30.2416 26.0156H32.2699C34.3201 26.0156 36.2862 25.1973 37.7359 23.7409C39.1856 22.2844 40 20.309 40 18.2493C40.0007 16.4356 39.3683 14.6792 38.2129 13.2857C37.0575 11.8922 35.4524 10.9499 33.6768 10.6228L33.6784 10.6243ZM21.8668 16.856C21.57 16.5531 21.1711 16.4056 20.7769 16.4056C20.3826 16.4056 19.9853 16.5531 19.6838 16.856L12.9942 23.5816C12.7044 23.8729 12.5416 24.2679 12.5416 24.6798C12.5416 25.0916 12.7044 25.4867 12.9942 25.7779L13.8554 26.64C14.4583 27.2458 15.3457 27.339 15.8281 26.8528C16.3104 26.3666 16.7047 26.6664 16.7047 27.5238V29.4467C16.7047 30.301 17.4004 31 18.2507 31H23.2984C24.1487 31 24.8444 30.301 24.8444 29.4467V27.5238C24.8444 26.6695 25.2402 26.3682 25.7257 26.8528C26.2049 27.3374 27.0954 27.2442 27.6968 26.64L28.5564 25.7779C28.8462 25.4867 29.0091 25.0916 29.0091 24.6798C29.0091 24.2679 28.8462 23.8729 28.5564 23.5816L21.8668 16.856Z" fill="#FFFEFA"/>
</svg>
