<svg width="40" height="33" viewBox="0 0 40 33" fill="none" xmlns="http://www.w3.org/2000/svg">
<path d="M17.7645 14.2367C17.4709 14.5338 17.2381 14.8865 17.0791 15.2747C16.9202 15.663 16.8384 16.0791 16.8383 16.4994C16.8382 16.9196 16.9198 17.3358 17.0786 17.7241C17.2373 18.1124 17.47 18.4653 17.7634 18.7625C18.0568 19.0601 18.4052 19.2963 18.7888 19.4574C19.1723 19.6186 19.5835 19.7015 19.9988 19.7016C20.414 19.7016 20.8252 19.6187 21.2088 19.4577C21.5924 19.2966 21.9409 19.0606 22.2343 18.763C22.5282 18.4659 22.7615 18.113 22.9206 17.7246C23.0797 17.3361 23.1616 16.9196 23.1616 16.4991C23.1616 16.0785 23.0797 15.662 22.9206 15.2736C22.7615 14.8851 22.5282 14.5322 22.2343 14.2351C21.9408 13.9378 21.5924 13.7019 21.2088 13.541C20.8253 13.3802 20.4142 13.2974 19.9991 13.2976C19.5839 13.2977 19.1729 13.3808 18.7895 13.5419C18.406 13.703 18.0577 13.9391 17.7645 14.2367ZM33.7922 31.8433C42.0897 23.3688 42.0699 9.63933 33.7288 1.1927C33.7168 1.1806 33.7028 1.17324 33.6909 1.16167L33.694 1.15851L32.8129 0.265237L32.8025 0.275759C32.5683 0.0858404 32.2739 -0.0113544 31.9741 0.002293C31.6744 0.0159404 31.3898 0.139498 31.1734 0.349934L31.1718 0.348357L31.1583 0.362035L31.1541 0.365717L31.151 0.369925L29.6045 1.93552L29.6148 1.94604C29.4428 2.16751 29.3496 2.44137 29.3506 2.72318C29.3515 3.00498 29.4465 3.27819 29.62 3.49848L29.6102 3.50848L30.4918 4.4007L30.5058 4.38649C30.5172 4.39859 30.525 4.4128 30.537 4.42489C37.1175 11.0892 37.1383 21.9189 30.6003 28.6106L30.5915 28.6016L29.7099 29.4944L29.7198 29.5044C29.5322 29.7415 29.4363 30.0397 29.4497 30.3432C29.4632 30.6467 29.5852 30.935 29.793 31.1541L29.7915 31.1557L31.3583 32.7423L31.3687 32.7318C31.5875 32.9059 31.858 33.0002 32.1363 32.9993C32.4146 32.9985 32.6845 32.9025 32.9023 32.7271L32.9121 32.7371L33.7262 31.9122L33.7288 31.9101L33.7381 31.9001L33.7922 31.8433Z" fill="#574A48"/>
<path d="M27.7524 25.7277C32.7194 20.6253 32.6997 12.3839 27.6885 7.30988C27.6766 7.29778 27.6626 7.29041 27.6506 7.27832L27.6542 7.27463L26.7726 6.38136L26.7623 6.39188C26.5281 6.20196 26.2336 6.10477 25.9339 6.11842C25.6341 6.13206 25.3495 6.25562 25.1331 6.46606L25.1315 6.46448L25.1165 6.47974L25.1139 6.48184L25.1118 6.48447L23.6707 7.9438L23.6686 7.94537L23.6671 7.94748L23.5642 8.05164L23.5746 8.06216C23.4024 8.28358 23.3092 8.5574 23.3101 8.83921C23.3109 9.12101 23.4058 9.39426 23.5793 9.6146L23.5694 9.6246L24.451 10.5179L24.465 10.5037C24.4765 10.5158 24.4842 10.53 24.4962 10.5421C27.7472 13.8337 27.7654 19.1733 24.558 22.4929L24.5513 22.486L23.6697 23.3788L23.6795 23.3888C23.4921 23.6259 23.3962 23.9239 23.4097 24.2273C23.4232 24.5308 23.5451 24.8189 23.7528 25.038L23.7507 25.0401L25.318 26.6267L25.3284 26.6162C25.5472 26.7902 25.8176 26.8844 26.0958 26.8835C26.374 26.8826 26.6437 26.7868 26.8615 26.6115L26.8719 26.622L27.6885 25.795L27.7524 25.7277Z" fill="#574A48"/>
<path d="M22.2364 14.2383C21.9429 13.9408 21.5945 13.7048 21.2109 13.5438C20.8274 13.3828 20.4162 13.2999 20.001 13.2998C19.5858 13.2998 19.1747 13.3826 18.7911 13.5435C18.4075 13.7044 18.058 13.9393 17.7645 14.2367C17.4709 14.5338 17.2381 14.8865 17.0791 15.2747C16.9202 15.663 16.8384 16.0791 16.8383 16.4994C16.8383 16.9198 16.9205 17.3379 17.0796 17.7263C17.2386 18.1147 17.4717 18.4675 17.7655 18.7646C18.0589 19.0621 18.4074 19.2981 18.7909 19.4591C19.1745 19.6201 19.5856 19.7029 20.0008 19.7029C20.416 19.7028 20.8271 19.6199 21.2106 19.4588C21.5941 19.2977 21.9409 19.0606 22.2343 18.763C22.8269 18.1629 23.1615 17.35 23.1616 16.5013C23.1616 15.6525 22.8289 14.8385 22.2364 14.2383Z" fill="#574A48"/>
<path d="M16.42 23.3861L16.4299 23.3761L16.3322 23.2772L16.3307 23.2751L15.5483 22.4823L15.5343 22.4965C15.5228 22.4844 15.515 22.4702 15.5036 22.4587C12.2526 19.1665 12.2344 13.8269 15.4418 10.5073L15.4485 10.5142L16.3301 9.62197L16.3197 9.61145C16.5071 9.37431 16.603 9.07629 16.5896 8.77287C16.5761 8.46946 16.4542 8.18135 16.2465 7.96221L16.2486 7.9601L14.6807 6.37294L14.6703 6.38346C14.4517 6.20914 14.1813 6.11474 13.903 6.1156C13.6247 6.11646 13.3549 6.21252 13.1373 6.3882L13.1274 6.3782L12.2458 7.27095L12.2474 7.27253C7.27989 12.3749 7.30015 20.6164 12.3113 25.6909C12.3227 25.7024 12.3367 25.7103 12.3487 25.7219L12.3456 25.7251L13.2271 26.6183L13.2375 26.6078C13.4717 26.7976 13.766 26.8947 14.0656 26.881C14.3653 26.8674 14.6498 26.7439 14.8662 26.5336L14.8677 26.5352L14.8828 26.52L14.8854 26.5178L14.8875 26.5152L16.3291 25.0554L16.3317 25.0533L16.4351 24.9486L16.4247 24.9381C16.5969 24.7168 16.6901 24.443 16.6893 24.1613C16.6884 23.8795 16.5935 23.6064 16.42 23.3861Z" fill="#574A48"/>
<path d="M10.3803 29.5023L10.3901 29.4923L9.50803 28.5995L9.49401 28.6137C9.48258 28.6016 9.47479 28.5874 9.46336 28.5753C2.8823 21.9105 2.86256 11.0818 9.4005 4.39017L9.40881 4.39859L10.2904 3.50585L10.2805 3.49585C10.4681 3.25868 10.5641 2.96054 10.5506 2.657C10.5371 2.35347 10.4151 2.06526 10.2073 1.84609L10.2094 1.84398L8.64202 0.256819L8.63163 0.267867C8.41298 0.0935384 8.14258 -0.000853634 7.86429 5.81751e-06C7.58601 0.000865269 7.31618 0.0969262 7.09858 0.272602L7.08819 0.26208L6.20712 1.15483L6.20867 1.1564C-2.08985 9.63144 -2.07011 23.3614 6.27153 31.808C6.28348 31.8201 6.29751 31.8275 6.30946 31.8391L6.30582 31.8428L7.18742 32.736L7.19781 32.7255C7.43208 32.9154 7.72653 33.0125 8.02627 32.9987C8.32602 32.985 8.6106 32.8613 8.82697 32.6508L8.82852 32.6524L10.2888 31.1731L10.2914 31.171L10.2935 31.1683L10.3953 31.0652L10.385 31.0547C10.5571 30.8333 10.6503 30.5595 10.6495 30.2777C10.6486 29.9959 10.5538 29.7226 10.3803 29.5023Z" fill="#574A48"/>
</svg>
