<svg width="16" height="16" viewBox="0 0 16 16" fill="none" xmlns="http://www.w3.org/2000/svg">
<path d="M11 0C13.7614 0 16 2.23858 16 5V11C16 13.7614 13.7614 16 11 16H5C2.23858 16 0 13.7614 0 11V5C0 2.23858 2.23858 0 5 0H11ZM4.11426 13H6.04688V6.92773H4.11426V13ZM10.7754 6.78418C9.75002 6.78418 9.28986 7.37178 9.03223 7.78613V7.80762H9.01953L9.03223 7.78613V6.92773H7.09961C7.12374 7.49909 7.09961 13 7.09961 13H9.03223V9.6084C9.03224 9.42695 9.0452 9.24559 9.09668 9.11621C9.23591 8.75405 9.5536 8.37811 10.0879 8.37793C10.7874 8.37793 11.0674 8.93499 11.0674 9.75195V13H13V9.5166C12.9999 7.65119 12.047 6.78438 10.7754 6.78418ZM5.09375 4C4.43222 4.00012 4.00005 4.45389 4 5.04883C4 5.63213 4.41952 6.09766 5.06836 6.09766H5.08105C5.75485 6.09766 6.1748 5.63213 6.1748 5.04883C6.16269 4.45297 5.75543 4 5.09375 4Z" fill="#FFFEFA"/>
</svg>
