<svg width="24" height="24" viewBox="0 0 24 24" fill="none" xmlns="http://www.w3.org/2000/svg">
<rect width="24" height="24" rx="8" fill="#211F29"/>
<path d="M7.81038 19.3616V9.42725H4.509V19.3616H7.81038Z" fill="#FFFEFA"/>
<path d="M6.16038 8.07018C7.31125 8.07018 8.02763 7.30843 8.02763 6.35418C8.007 5.37931 7.31263 4.63818 6.18238 4.63818C5.05213 4.63818 4.31375 5.38068 4.31375 6.35418C4.31375 7.30843 5.03013 8.07018 6.13838 8.07018H6.16038Z" fill="#FFFEFA"/>
<path d="M12.9089 10.8325C13.3489 10.1546 14.134 9.19214 15.8858 9.19214C18.0583 9.19214 19.6863 10.6111 19.6863 13.6636V19.3616H16.3849V14.0473C16.3849 12.7108 15.9078 11.8005 14.7129 11.8005C13.7999 11.8005 13.2568 12.4151 13.0189 13.0078C12.9309 13.2195 12.9089 13.5165 12.9089 13.8135V19.3616H9.60889C9.60889 19.3616 9.65014 10.3595 9.60889 9.42726H12.9089V10.8325Z" fill="#FFFEFA"/>
</svg>
