<svg width="40" height="40" viewBox="0 0 40 40" fill="none" xmlns="http://www.w3.org/2000/svg">
<path d="M16.4706 0C13.9744 0 11.5805 0.991594 9.81547 2.75664C8.05042 4.52169 7.05882 6.91561 7.05882 9.41177C7.05882 11.9079 8.05042 14.3018 9.81547 16.0669C11.5805 17.8319 13.9744 18.8235 16.4706 18.8235C18.9667 18.8235 21.3607 17.8319 23.1257 16.0669C24.8908 14.3018 25.8824 11.9079 25.8824 9.41177C25.8824 6.91561 24.8908 4.52169 23.1257 2.75664C21.3607 0.991594 18.9667 0 16.4706 0ZM4.72706 21.1765C4.10729 21.1737 3.49308 21.2933 2.91969 21.5286C2.3463 21.7638 1.82503 22.11 1.3858 22.5473C0.946573 22.9845 0.598045 23.5043 0.360229 24.0766C0.122413 24.6489 -6.27497e-06 25.2626 2.41238e-10 25.8824C2.41238e-10 29.8612 1.96 32.8612 5.02353 34.8165C8.04 36.7388 12.1059 37.6471 16.4706 37.6471C17.4384 37.6471 18.3875 37.6024 19.3176 37.5129C17.4709 35.2171 16.4662 32.3581 16.4706 29.4118C16.4706 26.2824 17.5812 23.4118 19.4282 21.1765H4.72706ZM40 29.4118C40 32.2199 38.8845 34.9131 36.8988 36.8988C34.9131 38.8845 32.2199 40 29.4118 40C26.6036 40 23.9104 38.8845 21.9248 36.8988C19.9391 34.9131 18.8235 32.2199 18.8235 29.4118C18.8235 26.6036 19.9391 23.9104 21.9248 21.9248C23.9104 19.9391 26.6036 18.8235 29.4118 18.8235C32.2199 18.8235 34.9131 19.9391 36.8988 21.9248C38.8845 23.9104 40 26.6036 40 29.4118ZM30.5318 23.2C30.4638 22.9552 30.3175 22.7394 30.1152 22.5856C29.9129 22.4318 29.6659 22.3486 29.4118 22.3486C29.1577 22.3486 28.9106 22.4318 28.7083 22.5856C28.506 22.7394 28.3597 22.9552 28.2918 23.2L27.1694 26.8047H23.5294C22.3906 26.8047 21.9153 28.3271 22.8376 29.0259L25.7788 31.2541L24.6565 34.8588C24.3035 35.9882 25.5459 36.9294 26.4682 36.2306L29.4094 34.0024L32.3506 36.2306C33.2729 36.9294 34.5153 35.9882 34.1624 34.8588L33.04 31.2541L35.9812 29.0259C36.9035 28.3271 36.4282 26.8047 35.2894 26.8047H31.6541L30.5318 23.2Z" fill="#574A48"/>
</svg>
