<svg width="38" height="40" viewBox="0 0 38 40" fill="none" xmlns="http://www.w3.org/2000/svg">
<path fill-rule="evenodd" clip-rule="evenodd" d="M18.5971 7.05602H4.47046C2.00053 7.05602 0 9.16502 0 11.7629V35.2931C0 37.8932 2.00053 40 4.47046 40H29.058C31.5279 40 33.5284 37.8932 33.5284 35.2931V18.0699L24.7797 27.2793C24.0157 28.0916 23.0208 28.6529 21.9276 28.8883L15.9349 30.1506C12.0233 30.9729 8.57657 27.3438 9.3589 23.228L10.557 16.9188C10.7738 15.7809 11.3058 14.7342 12.0859 13.9142L18.5971 7.05602Z" fill="#FFFEFA"/>
<path fill-rule="evenodd" clip-rule="evenodd" d="M37.6546 2.92692C37.4287 2.35806 37.0973 1.83642 36.6778 1.38906C36.2654 0.951541 35.7681 0.601537 35.216 0.360113C34.6721 0.122625 34.0845 0 33.4904 0C32.8963 0 32.3088 0.122625 31.7648 0.360113C31.2127 0.601537 30.7155 0.951541 30.303 1.38906L29.0825 2.67357L35.4574 9.38504L36.6778 8.0983C37.1017 7.65434 37.4336 7.13179 37.6546 6.56044C38.1151 5.39253 38.1151 4.09483 37.6546 2.92692ZM32.299 12.7119L25.9219 5.99819L15.2443 17.2432C15.0867 17.4101 14.9805 17.6183 14.938 17.8433L13.7399 24.1547C13.5835 24.977 14.2742 25.7015 15.0543 25.537L21.0491 24.2769C21.2673 24.2286 21.4658 24.1164 21.6191 23.9547L32.299 12.7119Z" fill="#FFFEFA"/>
</svg>
