<svg width="450" height="200" viewBox="0 0 450 200" fill="none" xmlns="http://www.w3.org/2000/svg">
<path d="M11.0548 67.5308C12.4336 51.7867 23.591 30.5331 9.07 6.35172C-4.3247 -13.7515 76.2396 15.8188 76.2395 67.5308C76.1931 90.4175 62.6482 104.065 55.5161 105.688C65.735 84.4011 53.1098 62.4184 44.2876 60.8416C34.4953 64.738 29.0424 86.4332 40.182 107.633C20.8899 102.237 9.67594 83.2749 11.0548 67.5308Z" fill="url(#paint0_linear_496_442)"/>
<path d="M138.84 77.625C138.839 69.18 130.583 44.2728 142.352 24.6756C153.207 8.38348 87.9155 32.348 87.9155 74.2567C87.9532 92.8047 98.9304 103.865 104.71 105.18C96.4287 87.9289 106.661 70.1135 113.81 68.8356C121.746 71.9933 126.165 89.5757 117.138 106.756C132.772 102.384 138.84 86.0699 138.84 77.625Z" fill="url(#paint1_linear_496_442)"/>
<path d="M51.7143 97.8211C52.0219 103.941 50.3206 108.996 47.9142 109.112C45.5078 109.229 43.3077 104.363 43.0001 98.243C42.6924 92.1234 44.3938 87.0681 46.8001 86.9516C49.2065 86.8351 51.4066 91.7016 51.7143 97.8211Z" fill="url(#paint2_linear_496_442)"/>
<path d="M107.791 98.8046C107.542 103.764 108.921 107.861 110.871 107.955C112.821 108.05 114.604 104.106 114.854 99.1465C115.103 94.1871 113.724 90.0901 111.774 89.9957C109.824 89.9013 108.041 93.8452 107.791 98.8046Z" fill="url(#paint3_linear_496_442)"/>
<path d="M69.0303 132.669C69.043 132.645 76.0243 119.03 82.1625 125.92C88.3063 132.816 71.7866 146.453 69.5243 147.711C65.4337 145.594 50.2792 133.786 56.3997 127.922C62.512 122.066 69.0127 132.641 69.0303 132.669Z" fill="url(#paint4_radial_496_442)"/>
<path d="M128.714 112.207C140.553 111.446 151.821 116.896 157.096 127.116C161.258 135.18 160.792 144.474 156.683 152.457C155.41 155.429 153.159 158.488 149.684 161.601C147.327 163.775 144.601 165.679 141.545 167.214C139.167 168.409 136.724 169.312 134.264 169.939C100.013 179.553 48.3453 151.068 48.1853 150.98L48.4649 150.839C48.7031 150.935 92.1423 168.382 123.402 158.171C125.649 157.485 127.906 156.587 130.128 155.47C132.998 154.029 135.602 152.329 137.897 150.451C141.229 147.789 143.481 145.271 144.862 142.899C149.206 136.437 150.42 129.274 147.41 123.441C143.925 116.689 137.166 112.287 128.714 112.207Z" fill="url(#paint5_linear_496_442)"/>
<path d="M45.4438 117.229C28.7569 115.261 12.4387 122.316 4.5456 136.508C-1.54853 147.466 -1.3058 160.315 4.02255 171.505C5.64621 175.648 8.60998 179.951 13.2502 184.38C16.4174 187.492 20.1079 190.244 24.2734 192.498C27.509 194.248 30.8476 195.599 34.2215 196.566C81.0907 211.253 153.643 174.077 153.828 173.983L153.449 173.777C153.345 173.815 92.4686 196.206 49.685 180.767C46.6197 179.728 43.5513 178.396 40.5379 176.765C36.6643 174.669 33.1639 172.232 30.091 169.564C25.5752 165.734 22.5597 162.147 20.7485 158.802C15.0323 149.702 13.6655 139.765 18.0727 131.84C23.1243 122.757 33.3484 117.057 45.4438 117.229Z" fill="url(#paint6_linear_496_442)"/>
<path d="M205.96 157.44C205.96 158.4 205.36 159 204.4 159H195.4C194.56 159 193.96 158.4 193.96 157.44V78.84C193.96 78 194.56 77.4 195.4 77.4H205.36C206.56 77.4 207.28 77.76 207.88 78.72L247.36 140.16V78.84C247.36 78 247.96 77.4 248.8 77.4H257.8C258.76 77.4 259.36 78 259.36 78.84V157.44C259.36 158.4 258.76 159 257.8 159H248.2C247.12 159 246.52 158.52 245.68 157.32L205.96 96.24V157.44ZM301.595 160.2C285.515 160.2 275.795 150.6 275.795 134.64C275.795 118.8 285.515 109.2 301.595 109.2C317.555 109.2 327.275 118.8 327.275 134.64C327.275 150.6 317.555 160.2 301.595 160.2ZM301.595 150.12C309.995 150.12 314.675 144 314.675 134.64C314.675 125.4 309.995 119.16 301.595 119.16C293.195 119.16 288.515 125.4 288.515 134.64C288.515 144 293.195 150.12 301.595 150.12ZM385.478 156.12C380.318 158.88 372.758 160.2 365.798 160.2C348.038 160.2 337.958 150.6 337.958 134.64C337.958 118.8 347.798 109.2 363.038 109.2C376.478 109.2 385.358 117.96 385.358 131.28C385.358 132.36 385.358 134.16 385.118 135.36C384.998 136.32 384.518 136.68 383.438 136.68H350.438C351.398 145.56 357.278 150.72 366.878 150.72C372.638 150.72 378.278 148.92 381.878 147.36C383.198 146.88 383.798 147.12 384.278 148.32L386.198 153.96C386.558 154.92 386.558 155.52 385.478 156.12ZM362.798 118.32C356.438 118.32 351.758 123 350.558 130.32H374.078C373.358 122.04 369.278 118.32 362.798 118.32ZM399.845 157.44V78.84C399.845 78 400.565 77.4 401.405 77.4H410.285C411.365 77.4 411.845 78 411.845 78.84V128.88L430.925 111.6C432.005 110.52 432.605 110.4 434.405 110.4H443.285C444.965 110.4 445.325 111.36 444.005 112.56L422.285 132.24L447.365 156.72C448.685 158.16 448.085 159 446.645 159H436.205C434.165 159 433.565 158.52 432.485 157.2L411.845 136.08V157.44C411.845 158.4 411.365 159 410.285 159H401.405C400.565 159 399.845 158.4 399.845 157.44Z" fill="url(#paint7_linear_496_442)"/>
<defs>
<linearGradient id="paint0_linear_496_442" x1="75.5683" y1="0" x2="75.5683" y2="107.633" gradientUnits="userSpaceOnUse">
<stop stop-color="#F9D2CF"/>
<stop offset="0.8" stop-color="#DA9B53"/>
</linearGradient>
<linearGradient id="paint1_linear_496_442" x1="75.5683" y1="0" x2="75.5683" y2="107.633" gradientUnits="userSpaceOnUse">
<stop stop-color="#F9D2CF"/>
<stop offset="0.8" stop-color="#DA9B53"/>
</linearGradient>
<linearGradient id="paint2_linear_496_442" x1="78.9234" y1="86.9496" x2="78.9234" y2="109.114" gradientUnits="userSpaceOnUse">
<stop stop-color="#694EC4"/>
<stop offset="0.8" stop-color="#372951"/>
</linearGradient>
<linearGradient id="paint3_linear_496_442" x1="78.9234" y1="86.9496" x2="78.9234" y2="109.114" gradientUnits="userSpaceOnUse">
<stop stop-color="#694EC4"/>
<stop offset="0.8" stop-color="#372951"/>
</linearGradient>
<radialGradient id="paint4_radial_496_442" cx="0" cy="0" r="1" gradientUnits="userSpaceOnUse" gradientTransform="translate(69.2429 135.842) scale(14.2805 11.8684)">
<stop stop-color="#FBC17F"/>
<stop offset="1" stop-color="#DA9B53"/>
</radialGradient>
<linearGradient id="paint5_linear_496_442" x1="80" y1="112.137" x2="80" y2="200" gradientUnits="userSpaceOnUse">
<stop stop-color="#694EC4"/>
<stop offset="0.8" stop-color="#372951"/>
</linearGradient>
<linearGradient id="paint6_linear_496_442" x1="80" y1="112.137" x2="80" y2="200" gradientUnits="userSpaceOnUse">
<stop stop-color="#694EC4"/>
<stop offset="0.8" stop-color="#372951"/>
</linearGradient>
<linearGradient id="paint7_linear_496_442" x1="317" y1="40" x2="317" y2="200" gradientUnits="userSpaceOnUse">
<stop stop-color="#694EC4"/>
<stop offset="0.8" stop-color="#372951"/>
</linearGradient>
</defs>
</svg>
