<svg width="49" height="63" viewBox="0 0 49 63" fill="none" xmlns="http://www.w3.org/2000/svg">
<path d="M39.4185 35.3453C43.0444 35.1054 46.4953 36.8222 48.1108 40.0416C49.3854 42.5817 49.2425 45.5094 47.984 48.024C47.5945 48.9602 46.905 49.9237 45.8408 50.9044C45.1188 51.5892 44.2841 52.1889 43.3483 52.6725C42.62 53.0488 41.8718 53.3334 41.1184 53.5306C30.629 56.5592 14.8057 47.5865 14.7568 47.5587L14.8424 47.5144C14.9153 47.5446 28.2186 53.0404 37.7919 49.824C38.4801 49.6079 39.1711 49.3249 39.8519 48.9731C40.7306 48.519 41.528 47.9836 42.231 47.3921C43.2515 46.5537 43.941 45.7603 44.3639 45.0131C45.6942 42.9776 46.0662 40.7212 45.1443 38.884C44.077 36.7572 42.0069 35.3705 39.4185 35.3453Z" fill="#49376C"/>
<path d="M3.38551 21.2722C3.80777 16.3128 7.22474 9.61791 2.77768 2.00079C-1.32445 -4.33172 23.3484 4.98292 23.3483 21.2722C23.3341 28.4815 19.186 32.7803 17.0018 33.2917C20.1313 26.5864 16.2649 19.6618 13.5631 19.1651C10.5642 20.3925 8.89423 27.2265 12.3057 33.9042C6.39753 32.2047 2.96325 26.2316 3.38551 21.2722Z" fill="#DA9B53"/>
<path d="M15.8375 30.8136C15.9317 32.7413 15.4107 34.3337 14.6737 34.3704C13.9368 34.4071 13.263 32.8742 13.1688 30.9465C13.0746 29.0189 13.5956 27.4265 14.3326 27.3898C15.0695 27.3531 15.7433 28.886 15.8375 30.8136Z" fill="#49376C"/>
<path d="M42.5196 24.4519C42.5196 21.7917 39.9911 13.9459 43.5951 7.77282C46.9196 2.64079 26.9241 10.1896 26.9241 23.3909C26.9356 29.2335 30.2974 32.7174 32.0675 33.1318C29.5313 27.6976 32.6648 22.0857 34.8544 21.6832C37.2847 22.6779 38.6381 28.2163 35.8734 33.6282C40.6615 32.2508 42.5197 27.112 42.5196 24.4519Z" fill="#DA9B53"/>
<path d="M33.0111 31.1234C32.9347 32.6857 33.357 33.9762 33.9542 34.0059C34.5515 34.0357 35.0975 32.7934 35.1739 31.2311C35.2503 29.6689 34.828 28.3784 34.2307 28.3486C33.6335 28.3189 33.0874 29.5612 33.0111 31.1234Z" fill="#49376C"/>
<path d="M21.1405 41.7909C21.1424 41.7871 23.2815 37.4935 25.1623 39.6648C27.0438 41.8371 21.9846 46.1326 21.2918 46.5289C20.0391 45.8622 15.398 42.1426 17.2724 40.2954C19.1447 38.4502 21.1361 41.7834 21.1405 41.7909Z" fill="#DA9B53"/>
<path d="M13.9172 36.927C8.8068 36.3073 3.80936 38.5295 1.39209 43.0001C-0.474237 46.4518 -0.399902 50.4992 1.23191 54.024C1.72915 55.3292 2.63681 56.6847 4.05787 58.0797C5.02781 59.0599 6.15806 59.9268 7.43373 60.6368C8.42463 61.1882 9.44707 61.6138 10.4803 61.9184C24.834 66.5448 47.0532 54.8344 47.1098 54.8045L46.9936 54.7398C46.9618 54.7518 28.3185 61.8048 15.216 56.9417C14.2773 56.6142 13.3376 56.1947 12.4147 55.6811C11.2284 55.0208 10.1564 54.2532 9.21538 53.4128C7.83242 52.2061 6.90891 51.0764 6.35422 50.0225C4.60365 47.156 4.18505 44.0259 5.53477 41.5296C7.08182 38.6685 10.2129 36.8731 13.9172 36.927Z" fill="#49376C"/>
</svg>
